<?xml version="1.0" encoding="UTF-8"?>
<svg version="1.1" xmlns="http://www.w3.org/2000/svg" width="256" height="256">
<path d="M0 0 C1.4298241 -0.00763015 2.85964413 -0.01605911 4.28945923 -0.02522278 C8.15956977 -0.04709313 12.02960134 -0.05595684 15.89976668 -0.06104922 C18.32293544 -0.06470232 20.74608382 -0.07094737 23.16924477 -0.07805061 C31.63806687 -0.10252135 40.10682795 -0.1155914 48.57568359 -0.11914062 C56.44478078 -0.12277176 64.31348697 -0.15264279 72.18246478 -0.19454521 C78.95812238 -0.22934867 85.73365104 -0.24469081 92.50939733 -0.24538666 C96.54743105 -0.2461762 100.58506621 -0.25476456 104.62300682 -0.28338432 C108.426016 -0.3097377 112.22830109 -0.31167549 116.03136063 -0.29572868 C117.41797922 -0.29392766 118.80464114 -0.30048167 120.19116783 -0.31654739 C132.79677788 -0.45356742 142.65633798 3.01649045 152.90161133 10.30639648 C152.90161133 10.96639648 152.90161133 11.62639648 152.90161133 12.30639648 C153.56161133 12.30639648 154.22161133 12.30639648 154.90161133 12.30639648 C161.41738808 18.65424085 164.81249735 26.90936221 167.90161133 35.30639648 C168.25164215 36.24925507 168.60167297 37.19211365 168.96231079 38.1635437 C170.57987687 43.96910059 170.19633226 50.04594238 170.19213867 56.02172852 C170.19813028 57.41052102 170.20493727 58.79931022 170.2124939 60.18809509 C170.23010192 63.946716 170.23484722 67.70524573 170.23612547 71.4639039 C170.23755116 73.81806658 170.24182878 76.17220639 170.2471199 78.52636337 C170.26560662 86.75644134 170.27379267 94.98645469 170.2722168 103.21655273 C170.27101742 110.85949939 170.29208297 118.50216273 170.32370412 126.14503777 C170.34996172 132.72878047 170.36058006 139.31243123 170.35930598 145.89622581 C170.3587989 149.81853386 170.36433928 153.74059023 170.38566208 157.66284561 C170.40520395 161.35826806 170.40506185 165.05320297 170.39062881 168.74864388 C170.38758191 170.72969588 170.40410696 172.71074877 170.42150879 174.69172668 C170.32402856 188.76334328 166.39346051 201.00773277 156.87036133 211.55639648 C151.27792364 216.9056847 144.92603033 220.16858495 137.90161133 223.30639648 C137.90161133 223.96639648 137.90161133 224.62639648 137.90161133 225.30639648 C117.64813303 225.39981724 97.39469842 225.47036461 77.14104939 225.51364517 C67.73702609 225.53427479 58.33313662 225.56240302 48.92919922 225.6081543 C40.73319685 225.64800984 32.53729139 225.67382639 24.34119481 225.68275046 C20.00094969 225.6879674 15.66098186 225.70023729 11.32082558 225.72931671 C7.2357054 225.75646563 3.15097674 225.76484261 -0.93422508 225.75882721 C-2.43343737 225.75992769 -3.93266275 225.76788497 -5.43179703 225.78321838 C-7.47935258 225.80313395 -9.52711818 225.79594763 -11.57475281 225.78741455 C-13.29343583 225.79294531 -13.29343583 225.79294531 -15.04683971 225.7985878 C-18.75944105 225.19977383 -20.35579984 223.81092566 -23.09838867 221.30639648 C-24.67927275 220.48887568 -26.2844179 219.71648043 -27.91088867 218.99389648 C-38.68903516 213.70077113 -45.87842232 204.99695568 -49.97338867 193.68139648 C-52.36834415 185.06789246 -52.25924266 176.25672113 -52.29125977 167.37719727 C-52.29943726 166.1091777 -52.30761475 164.84115814 -52.31604004 163.53471375 C-52.34204383 159.35706651 -52.35754969 155.17941036 -52.37182617 151.00170898 C-52.37719547 149.55184806 -52.38257298 148.10198717 -52.38795853 146.65212631 C-52.40955889 140.61092809 -52.4282868 134.56973229 -52.43958092 128.52850533 C-52.4557678 119.93298105 -52.48884946 111.33791229 -52.54598176 102.74255955 C-52.58497204 96.66484943 -52.6042478 90.58725962 -52.60950148 84.50942791 C-52.61311658 80.89648926 -52.62471811 77.2840387 -52.65760422 73.67123795 C-52.84633041 51.87194786 -52.621615 29.43683664 -36.91088867 12.49389648 C-25.83625709 2.07291095 -14.63511789 0.00495343 0 0 Z " fill="#F6BE6E" transform="translate(69.098388671875,16.693603515625)"/>
<path d="M0 0 C1.4298241 -0.00763015 2.85964413 -0.01605911 4.28945923 -0.02522278 C8.15956977 -0.04709313 12.02960134 -0.05595684 15.89976668 -0.06104922 C18.32293544 -0.06470232 20.74608382 -0.07094737 23.16924477 -0.07805061 C31.63806687 -0.10252135 40.10682795 -0.1155914 48.57568359 -0.11914062 C56.44478078 -0.12277176 64.31348697 -0.15264279 72.18246478 -0.19454521 C78.95812238 -0.22934867 85.73365104 -0.24469081 92.50939733 -0.24538666 C96.54743105 -0.2461762 100.58506621 -0.25476456 104.62300682 -0.28338432 C108.426016 -0.3097377 112.22830109 -0.31167549 116.03136063 -0.29572868 C117.41797922 -0.29392766 118.80464114 -0.30048167 120.19116783 -0.31654739 C132.79677788 -0.45356742 142.65633798 3.01649045 152.90161133 10.30639648 C152.90161133 10.96639648 152.90161133 11.62639648 152.90161133 12.30639648 C153.56161133 12.30639648 154.22161133 12.30639648 154.90161133 12.30639648 C161.41738808 18.65424085 164.81249735 26.90936221 167.90161133 35.30639648 C168.25164215 36.24925507 168.60167297 37.19211365 168.96231079 38.1635437 C170.57987687 43.96910059 170.19633226 50.04594238 170.19213867 56.02172852 C170.19813028 57.41052102 170.20493727 58.79931022 170.2124939 60.18809509 C170.23010192 63.946716 170.23484722 67.70524573 170.23612547 71.4639039 C170.23755116 73.81806658 170.24182878 76.17220639 170.2471199 78.52636337 C170.26560662 86.75644134 170.27379267 94.98645469 170.2722168 103.21655273 C170.27101742 110.85949939 170.29208297 118.50216273 170.32370412 126.14503777 C170.34996172 132.72878047 170.36058006 139.31243123 170.35930598 145.89622581 C170.3587989 149.81853386 170.36433928 153.74059023 170.38566208 157.66284561 C170.40520395 161.35826806 170.40506185 165.05320297 170.39062881 168.74864388 C170.38758191 170.72969588 170.40410696 172.71074877 170.42150879 174.69172668 C170.32402856 188.76334328 166.39346051 201.00773277 156.87036133 211.55639648 C151.27792364 216.9056847 144.92603033 220.16858495 137.90161133 223.30639648 C137.90161133 223.96639648 137.90161133 224.62639648 137.90161133 225.30639648 C117.64813303 225.39981724 97.39469842 225.47036461 77.14104939 225.51364517 C67.73702609 225.53427479 58.33313662 225.56240302 48.92919922 225.6081543 C40.73319685 225.64800984 32.53729139 225.67382639 24.34119481 225.68275046 C20.00094969 225.6879674 15.66098186 225.70023729 11.32082558 225.72931671 C7.2357054 225.75646563 3.15097674 225.76484261 -0.93422508 225.75882721 C-2.43343737 225.75992769 -3.93266275 225.76788497 -5.43179703 225.78321838 C-7.47935258 225.80313395 -9.52711818 225.79594763 -11.57475281 225.78741455 C-13.29343583 225.79294531 -13.29343583 225.79294531 -15.04683971 225.7985878 C-18.75944105 225.19977383 -20.35579984 223.81092566 -23.09838867 221.30639648 C-24.67927275 220.48887568 -26.2844179 219.71648043 -27.91088867 218.99389648 C-38.68903516 213.70077113 -45.87842232 204.99695568 -49.97338867 193.68139648 C-52.36834415 185.06789246 -52.25924266 176.25672113 -52.29125977 167.37719727 C-52.29943726 166.1091777 -52.30761475 164.84115814 -52.31604004 163.53471375 C-52.34204383 159.35706651 -52.35754969 155.17941036 -52.37182617 151.00170898 C-52.37719547 149.55184806 -52.38257298 148.10198717 -52.38795853 146.65212631 C-52.40955889 140.61092809 -52.4282868 134.56973229 -52.43958092 128.52850533 C-52.4557678 119.93298105 -52.48884946 111.33791229 -52.54598176 102.74255955 C-52.58497204 96.66484943 -52.6042478 90.58725962 -52.60950148 84.50942791 C-52.61311658 80.89648926 -52.62471811 77.2840387 -52.65760422 73.67123795 C-52.84633041 51.87194786 -52.621615 29.43683664 -36.91088867 12.49389648 C-25.83625709 2.07291095 -14.63511789 0.00495343 0 0 Z M-23.34838867 33.55639648 C-24.28424805 34.36850586 -24.28424805 34.36850586 -25.23901367 35.19702148 C-31.62997009 42.44726616 -31.68417311 48.48696646 -31.64770508 57.90161133 C-31.65640997 59.27719728 -31.66677983 60.65277355 -31.67868042 62.02833557 C-31.70537083 65.74959116 -31.70662796 69.47043939 -31.70155382 73.19177198 C-31.69940806 76.30542415 -31.70919732 79.41899495 -31.71876466 82.53262961 C-31.74092439 89.88241119 -31.74184743 97.23198832 -31.72973633 104.58178711 C-31.71766015 112.14773236 -31.74227571 119.71293342 -31.78487647 127.27875173 C-31.82017929 133.78943105 -31.83210011 140.29987426 -31.82560098 146.8106457 C-31.82198578 150.69268904 -31.82714026 154.57420157 -31.85503006 158.45615768 C-31.88029457 162.10912126 -31.87620138 165.76093039 -31.85020828 169.41387749 C-31.84326802 171.38139265 -31.86575579 173.34894395 -31.88934326 175.31632996 C-31.79572308 183.24880853 -30.47226457 188.34506503 -25.09838867 194.30639648 C-22.78886997 196.47023152 -22.78886997 196.47023152 -20.41088867 197.80639648 C-19.66452148 198.27045898 -18.9181543 198.73452148 -18.14916992 199.21264648 C-14.41282606 201.20536321 -11.45561825 201.43669846 -7.28669739 201.4535675 C-5.46777481 201.46430046 -5.46777481 201.46430046 -3.61210632 201.47525024 C-2.26614406 201.47809048 -0.92018151 201.48080221 0.42578125 201.48339844 C1.84179857 201.48966429 3.25781425 201.4963112 4.67382812 201.50331116 C9.32656715 201.52434255 13.97930647 201.53471385 18.63208008 201.54467773 C20.23509552 201.54872587 21.83811078 201.55284281 23.44112587 201.55702782 C30.97389763 201.57607881 38.50665961 201.59030907 46.03945082 201.59863979 C54.72734366 201.60840712 63.41498137 201.6347137 72.10278434 201.67514068 C78.82223702 201.70533231 85.5416167 201.72011161 92.26113588 201.7234208 C96.27222503 201.72576816 100.28304161 201.73468712 104.29405785 201.75988197 C108.0706446 201.78322078 111.84678044 201.7873729 115.62342072 201.77712059 C117.00526495 201.77662649 118.38713181 201.78290968 119.76890755 201.79667664 C129.17108007 201.88506848 135.346364 201.24047373 142.65161133 194.93139648 C147.44701811 189.33675524 150.01760904 185.10647191 150.04878235 177.71575928 C150.05593765 176.55218399 150.06309296 175.3886087 150.07046509 174.18977356 C150.07315399 172.91180405 150.0758429 171.63383453 150.07861328 170.31713867 C150.08487933 168.95861131 150.09152626 167.60008567 150.098526 166.24156189 C150.11955286 161.77881053 150.12992743 157.31605888 150.13989258 152.85327148 C150.14394072 151.31585929 150.14805766 149.77844728 150.15224266 148.24103546 C150.1712917 141.01741483 150.18552305 133.7938044 150.19385463 126.57016349 C150.20362491 118.23712901 150.22993997 109.90436032 150.27035552 101.57141948 C150.30053616 95.12713929 150.31532536 88.6829352 150.31863564 82.23858571 C150.32098402 78.39128528 150.32991638 74.54426887 150.35509682 70.69704437 C150.3784168 67.07558165 150.38259535 63.45458917 150.37233543 59.83307076 C150.37160584 57.87705071 150.3906697 55.92105433 150.41040039 53.96513367 C150.36250329 45.86121448 149.43832762 41.39596137 144.07739258 35.19702148 C143.46250977 34.65561523 142.84762695 34.11420898 142.21411133 33.55639648 C141.61211914 33.00467773 141.01012695 32.45295898 140.38989258 31.88452148 C132.49885553 26.87984493 124.25824729 26.8744852 115.15527344 26.91821289 C113.78762902 26.91414031 112.41998789 26.9087946 111.05235291 26.90228271 C107.36230059 26.88868601 103.67250183 26.89387548 99.98244548 26.90341997 C96.10780234 26.91105493 92.23317983 26.9039605 88.35853577 26.89926147 C81.85486991 26.89381569 75.35130652 26.9009652 68.84765625 26.9152832 C61.3432043 26.93161437 53.83899685 26.92631316 46.3345508 26.90980399 C39.87397934 26.89616367 33.41348121 26.89428166 26.95289999 26.90211999 C23.1018238 26.90678167 19.25086231 26.9074629 15.39979362 26.89751053 C11.77909151 26.88880567 8.1587029 26.89492637 4.53803444 26.9121933 C2.58588713 26.91801219 0.63371312 26.90917321 -1.31842041 26.89981079 C-9.76038869 26.96053891 -16.80833412 27.67584323 -23.34838867 33.55639648 Z " fill="#4A3C30" transform="translate(69.098388671875,16.693603515625)"/>
<path d="M0 0 C0.65083054 -0.0065712 1.30166107 -0.0131424 1.97221375 -0.01991272 C4.12511316 -0.03961353 6.2779428 -0.05130314 8.4309082 -0.0612793 C9.16838602 -0.06535482 9.90586384 -0.06943035 10.66568947 -0.07362938 C14.5717198 -0.0944798 18.47771514 -0.10878402 22.38378906 -0.11816406 C26.40420302 -0.12920609 30.42406009 -0.1635827 34.44427776 -0.20333576 C37.54739865 -0.22957626 40.65038856 -0.2378626 43.75361061 -0.24144554 C45.23468586 -0.24629502 46.71575591 -0.25786202 48.19672203 -0.27648354 C57.28514629 -0.38362639 64.46068297 -0.30844495 71.6027832 5.9934082 C72.05782227 6.56961914 72.51286133 7.14583008 72.98168945 7.73950195 C73.45477539 8.31829102 73.92786133 8.89708008 74.4152832 9.4934082 C76.53661581 12.65705649 76.68048557 15.47157498 76.72119141 19.1640625 C76.74044426 20.68660896 76.74044426 20.68660896 76.76008606 22.23991394 C76.76747299 23.33677017 76.77485992 24.4336264 76.7824707 25.5637207 C76.79054245 26.69469681 76.7986142 27.82567291 76.80693054 28.99092102 C76.82076956 31.38748645 76.83149253 33.78407158 76.83935547 36.18066406 C76.85654039 39.83282228 76.90042653 43.48406876 76.94458008 47.13598633 C76.95470965 49.46605781 76.96322492 51.79613697 76.9699707 54.1262207 C76.98747879 55.21295578 77.00498688 56.29969086 77.02302551 57.4193573 C77.00476044 63.85485466 76.33179365 68.84027113 72.54418945 74.17700195 C68.22109627 78.28921255 65.01226955 79.3048267 59.14575195 79.27124023 C57.48757446 79.2672673 57.48757446 79.2672673 55.79589844 79.26321411 C54.59908447 79.25796722 53.40227051 79.25272034 52.16918945 79.24731445 C49.63142219 79.25590365 47.09366075 79.26638142 44.5559082 79.27856445 C40.55726814 79.29521525 36.56086599 79.30210829 32.56225586 79.27661133 C28.70126371 79.25553657 24.84257345 79.27899022 20.98168945 79.30981445 C19.21075928 79.28372604 19.21075928 79.28372604 17.40405273 79.2571106 C8.66593019 79.38280594 3.40029042 81.86723676 -3.45581055 87.17700195 C-4.35887939 87.86617706 -5.26194824 88.55535217 -6.19238281 89.26541138 C-7.73292837 90.45808228 -9.26190522 91.66592202 -10.77612305 92.8918457 C-12.45581055 94.17700195 -12.45581055 94.17700195 -13.45581055 94.17700195 C-13.45838867 93.17540039 -13.4609668 92.17379883 -13.46362305 91.1418457 C-13.44029167 82.37165916 -13.44029167 82.37165916 -17.45581055 74.86450195 C-18.44589301 73.95771969 -19.44399395 73.05946699 -20.45581055 72.17700195 C-21.72675566 69.63511173 -21.61764263 67.79810296 -21.66455078 64.95214844 C-21.6838414 63.86018661 -21.70313202 62.76822479 -21.7230072 61.64317322 C-21.78076747 56.62705728 -21.83006463 51.61108673 -21.86083984 46.59472656 C-21.88238583 43.95364276 -21.91644742 41.31262969 -21.96337891 38.671875 C-22.03052332 34.85945807 -22.0578692 31.04852135 -22.0769043 27.2355957 C-22.10473495 26.06338974 -22.13256561 24.89118378 -22.16123962 23.68345642 C-22.14199816 15.95757178 -20.72779462 10.94874109 -15.45581055 5.17700195 C-10.64302273 1.01735644 -6.25325379 0.05229122 0 0 Z " fill="#EFE2D3" transform="translate(102.455810546875,87.822998046875)"/>
<path d="M0 0 C1.55512445 0.00186888 3.1102495 0.00329056 4.66537476 0.00428772 C8.72590813 0.00807588 12.78640479 0.01787385 16.84692383 0.0289917 C21.00341292 0.03928609 25.15990804 0.04380242 29.31640625 0.04882812 C37.44793337 0.05950004 45.57943085 0.0765311 53.7109375 0.09765625 C53.7109375 2.73765625 53.7109375 5.37765625 53.7109375 8.09765625 C52.76626114 8.10352249 51.82158478 8.10938873 50.84828186 8.11543274 C41.91822179 8.17280202 32.98840192 8.24563716 24.05858707 8.33337116 C19.46835673 8.37797896 14.87821318 8.41725591 10.2878418 8.4440918 C5.85266206 8.47022087 1.41781805 8.51069029 -3.01715279 8.56084251 C-4.70386115 8.57744656 -6.39062749 8.58900089 -8.07740593 8.59527016 C-20.46298834 8.64076976 -20.46298834 8.64076976 -32.2890625 12.09765625 C-28.93473141 11.14831726 -25.59659745 10.2001679 -22.2890625 9.09765625 C-19.84019761 9.00693367 -17.4204848 8.97155245 -14.97192383 8.98413086 C-14.23021439 8.98398483 -13.48850494 8.98383881 -12.72431946 8.98368835 C-10.27321445 8.98438491 -7.82218548 8.99216528 -5.37109375 9 C-3.67144309 9.00186509 -1.97179189 9.00328857 -0.2721405 9.00428772 C4.20113611 9.0081057 8.67438026 9.01792987 13.14764404 9.0289917 C17.71235719 9.03922126 22.27707557 9.04378865 26.84179688 9.04882812 C35.79819135 9.05955276 44.75456172 9.07662058 53.7109375 9.09765625 C53.7109375 13.05765625 53.7109375 17.01765625 53.7109375 21.09765625 C52.80606598 21.09908127 51.90119446 21.10050629 50.96890259 21.10197449 C42.40696651 21.11986486 33.84554328 21.16165661 25.28385353 21.22974682 C20.88301514 21.26391798 16.48252026 21.28911133 12.08154297 21.29321289 C7.82774958 21.29751719 3.57472976 21.32615452 -0.67882156 21.37108803 C-2.29492294 21.3839954 -3.91111722 21.38839487 -5.52726364 21.38381004 C-15.71036571 21.36166693 -24.50678725 21.78351154 -32.38998413 29.02848816 C-40.22936253 37.06711107 -41.88202688 45.54911583 -41.78735352 56.47045898 C-41.79287231 57.67800339 -41.79839111 58.88554779 -41.80407715 60.12968445 C-41.815779 63.41450051 -41.81024165 66.69875129 -41.79777265 69.98354602 C-41.78969052 73.42862645 -41.80659047 76.87357454 -41.82151794 80.31861877 C-41.85222323 88.31441095 -41.85384157 96.31007558 -41.85186768 104.30591583 C-41.85047089 114.50914188 -41.86074811 124.71227169 -41.9004454 134.91542584 C-41.91294395 138.34269294 -41.91855825 141.76970724 -41.90893745 145.19698906 C-41.89975951 149.00833902 -41.908156 152.81928226 -41.92016602 156.63061523 C-41.90858711 158.33785767 -41.90858711 158.33785767 -41.89677429 160.07958984 C-41.9035318 161.11268784 -41.91028931 162.14578583 -41.91725159 163.21018982 C-41.91666528 164.11107551 -41.91607897 165.01196119 -41.91547489 165.94014645 C-42.0387588 166.65212468 -42.16204271 167.36410292 -42.2890625 168.09765625 C-45.78030267 170.4251497 -47.18128501 170.60064941 -51.2890625 170.09765625 C-53.82102005 168.10065971 -55.12269874 166.8911331 -55.79242706 163.6968441 C-55.79393517 162.79910082 -55.79544327 161.90135754 -55.79699707 160.97640991 C-55.80827637 159.94200775 -55.81955566 158.90760559 -55.83117676 157.84185791 C-55.82307983 156.71245789 -55.81498291 155.58305786 -55.80664062 154.41943359 C-55.8136499 153.22546967 -55.82065918 152.03150574 -55.82788086 150.80136108 C-55.84247308 147.52808483 -55.839045 144.25545527 -55.82636452 140.9821887 C-55.81622172 137.54887269 -55.82563503 134.11559925 -55.83190918 130.68228149 C-55.8391878 124.91034216 -55.82959861 119.13860747 -55.81054688 113.36669922 C-55.78883931 106.71379476 -55.79578357 100.06138185 -55.8178525 93.40848958 C-55.83607468 87.68426603 -55.83852989 81.96018953 -55.82809782 76.2359463 C-55.82189213 72.82287922 -55.82094449 69.41004209 -55.83424377 65.9969902 C-55.84445272 62.18174309 -55.82884248 58.36742447 -55.80664062 54.55224609 C-55.81473755 53.43499146 -55.82283447 52.31773682 -55.83117676 51.16662598 C-55.75779867 44.32719855 -54.97697155 38.02289099 -51.2890625 32.09765625 C-50.2990625 31.76765625 -49.3090625 31.43765625 -48.2890625 31.09765625 C-48.2890625 29.44765625 -48.2890625 27.79765625 -48.2890625 26.09765625 C-48.9490625 26.75765625 -49.6090625 27.41765625 -50.2890625 28.09765625 C-49.92936325 19.46487423 -45.0293486 14.55031924 -38.9140625 8.84765625 C-27.16095183 -1.13954463 -14.78338931 -0.05262599 0 0 Z " fill="#F3C278" transform="translate(74.2890625,17.90234375)"/>
<path d="M0 0 C9.75371825 -0.09059936 19.50715409 -0.16388745 29.261199 -0.20724869 C33.79107312 -0.22806663 38.32064283 -0.25627747 42.8503418 -0.30175781 C47.22701546 -0.34542351 51.6033975 -0.36918062 55.98027229 -0.37950897 C57.6447413 -0.38686334 59.3091955 -0.40122435 60.97353935 -0.42292023 C77.54015868 -0.63016345 77.54015868 -0.63016345 85 4 C85.86753906 4.46664063 86.73507813 4.93328125 87.62890625 5.4140625 C88.26699219 5.81367188 88.90507812 6.21328125 89.5625 6.625 C90.22378906 7.02976562 90.88507813 7.43453125 91.56640625 7.8515625 C92.03949219 8.23054688 92.51257813 8.60953125 93 9 C93 9.66 93 10.32 93 11 C93.66 11 94.32 11 95 11 C97.6875 13.75 97.6875 13.75 100 17 C99.8125 19.375 99.8125 19.375 99 21 C98.01 20.34 97.02 19.68 96 19 C96.86625 19.9075 97.7325 20.815 98.625 21.75 C106.22965275 30.74772321 108.89801428 39.52661579 108.72875977 51.15649414 C108.7344548 52.41163818 108.74014984 53.66678223 108.74601746 54.95996094 C108.75515185 58.36307104 108.73782083 61.76394335 108.70715833 65.16678548 C108.68058242 68.74076665 108.68609337 72.31471881 108.6872406 75.88877869 C108.68444378 81.87779633 108.65855448 87.86635383 108.61743164 93.85522461 C108.57007427 100.77763381 108.55444465 107.69954238 108.5566383 114.62210184 C108.55866297 122.00981445 108.5378723 129.39733458 108.51029849 136.78498912 C108.5039074 138.90977316 108.50177549 141.03452615 108.50058174 143.15931892 C108.49701317 147.10907862 108.4679007 151.05842091 108.43579102 155.00805664 C108.43715057 156.18466354 108.43851013 157.36127045 108.43991089 158.5735321 C108.42711594 159.64574005 108.41432098 160.717948 108.40113831 161.82264709 C108.39611077 162.75558625 108.39108324 163.68852541 108.38590336 164.64973545 C107.92601602 167.45058411 107.27717155 168.3472241 105 170 C102.0625 170.4375 102.0625 170.4375 99 170 C96.44611234 167.98851209 95.16022118 166.78995481 94.50615788 163.5651598 C94.5089648 162.65136901 94.51177172 161.73757822 94.5146637 160.7960968 C94.50797668 159.74342117 94.50128967 158.69074554 94.49440002 157.60617065 C94.50728561 156.45649811 94.5201712 155.30682556 94.53344727 154.12231445 C94.53114105 152.90723709 94.52883484 151.69215973 94.52645874 150.44026184 C94.52382613 147.79890784 94.52834643 145.15867823 94.54471016 142.51748085 C94.56985464 138.33495078 94.56353657 134.15282944 94.55223083 129.97026062 C94.52903874 119.57800812 94.54739212 109.18587307 94.57373047 98.79364014 C94.59371462 90.7230734 94.60217747 82.65283487 94.57679409 74.58226746 C94.56502564 70.43141221 94.57652438 66.28149328 94.6060468 62.13073599 C94.62251529 58.92867264 94.60656607 55.72672879 94.59594727 52.5246582 C94.61085709 51.38510681 94.62576691 50.24555542 94.64112854 49.07147217 C94.57761929 41.94501415 93.43662088 36.70427955 89 31 C79.24759156 21.79998479 68.93680318 21.53792849 56.25 21.48828125 C54.62474222 21.47141579 52.99949733 21.45326306 51.37426758 21.43388367 C47.11977163 21.38657996 42.86532799 21.35664416 38.61065674 21.33044434 C34.25986405 21.30053918 29.90925122 21.2540433 25.55859375 21.20898438 C17.03913641 21.12317473 8.51969706 21.05726623 0 21 C0 14.07 0 7.14 0 0 Z " fill="#E87F5C" transform="translate(129,18)"/>
<path d="M0 0 C1.04983566 -0.0076664 1.04983566 -0.0076664 2.12088013 -0.01548767 C4.42531994 -0.02934104 6.72945913 -0.02842976 9.03393555 -0.02612305 C10.64430349 -0.03001312 12.25467041 -0.03434843 13.86503601 -0.03910828 C17.23834561 -0.04656193 20.61155054 -0.04628601 23.98486328 -0.04101562 C28.292113 -0.03523068 32.59893134 -0.05213232 36.90610981 -0.0753603 C40.2322792 -0.09014806 43.55834602 -0.09096236 46.88454247 -0.08785057 C48.47164957 -0.08836153 50.05876277 -0.09355677 51.64583778 -0.10366249 C70.53383061 -0.20915178 70.53383061 -0.20915178 77.6081543 6.0246582 C78.40479492 6.69754883 78.40479492 6.69754883 79.2175293 7.3840332 C85.37525397 14.48007783 85.43784265 20.43554413 85.35424805 29.58325195 C85.35570328 30.86394058 85.35715851 32.14462921 85.35865784 33.46412659 C85.36003693 36.16656228 85.3475694 38.8684641 85.32470703 41.57080078 C85.29635153 45.0149273 85.2990581 48.45816614 85.31179714 51.90235806 C85.32047222 55.21274678 85.30528728 58.5228781 85.29174805 61.83325195 C85.29468369 63.06055527 85.29761932 64.28785858 85.30064392 65.55235291 C85.20347719 74.42337879 84.15264376 81.96488865 77.77270508 88.6111908 C70.78468419 94.68276911 62.2608901 94.74407352 53.4831543 94.42700195 C51.09125868 94.39762478 48.69932768 94.37102143 46.30737305 94.34692383 C42.59141024 94.28951086 38.87957238 94.21288743 35.1652832 94.08642578 C19.16278173 93.58614761 8.4426247 94.46789071 -3.89575195 105.27294922 C-4.45593018 105.80034195 -5.0161084 106.32773468 -5.59326172 106.87110901 C-8.73800093 109.72132329 -10.66774252 110.52273595 -14.80981445 110.4699707 C-16.14882812 110.46030273 -16.14882812 110.46030273 -17.51489258 110.45043945 C-18.90804687 110.42530273 -18.90804687 110.42530273 -20.3293457 110.3996582 C-21.2697168 110.39063477 -22.21008789 110.38161133 -23.17895508 110.37231445 C-25.50017538 110.34874876 -27.82088214 110.31584937 -30.1418457 110.2746582 C-27.78207232 107.11611198 -25.88172425 104.91412454 -22.3918457 103.0871582 C-20.03324808 101.48087189 -19.26560112 100.73564712 -18.5168457 97.9465332 C-18.3025334 93.47276385 -18.62128057 90.30702933 -21.5793457 86.8371582 C-22.4249707 85.9915332 -23.2705957 85.1459082 -24.1418457 84.2746582 C-25.22420908 81.02756807 -25.29498429 78.60354394 -25.3347168 75.18603516 C-25.35077972 73.93075516 -25.36684265 72.67547516 -25.38339233 71.38215637 C-25.39488218 70.00909099 -25.40549032 68.63601799 -25.4152832 67.26293945 C-25.42060688 66.56959188 -25.42593056 65.87624432 -25.43141556 65.16188622 C-25.45812478 61.48928306 -25.47750351 57.81671358 -25.49194336 54.14404297 C-25.50525995 51.11476289 -25.5330716 48.08616007 -25.57397461 45.05712891 C-25.62348438 41.39015819 -25.6480867 37.72379964 -25.65517044 34.05650902 C-25.66185343 32.66471864 -25.67699826 31.27294033 -25.70106125 29.88134193 C-25.86226585 19.99148916 -24.76148635 14.29676754 -18.0793457 7.0324707 C-17.4399707 6.49364258 -16.8005957 5.95481445 -16.1418457 5.3996582 C-15.5024707 4.84536133 -14.8630957 4.29106445 -14.2043457 3.7199707 C-9.58778058 0.48487772 -5.57557161 0.02036204 0 0 Z M-15.0168457 14.2746582 C-18.13251654 18.67325233 -19.38957932 21.34128847 -19.43237305 26.77416992 C-19.44513275 27.87566376 -19.45789246 28.97715759 -19.47103882 30.11203003 C-19.47326447 31.2974942 -19.47549011 32.48295837 -19.4777832 33.7043457 C-19.48444 34.92743439 -19.4910968 36.15052307 -19.49795532 37.41067505 C-19.50808071 39.99797054 -19.51277238 42.58529214 -19.51245117 45.17260742 C-19.51682137 49.12763595 -19.55313669 53.08154608 -19.59106445 57.03637695 C-19.59693318 59.55069606 -19.6009022 62.06502046 -19.6027832 64.5793457 C-19.61715424 65.76076141 -19.63152527 66.94217712 -19.64633179 68.15939331 C-19.61119093 74.48595589 -19.4689369 78.49813114 -15.1418457 83.2746582 C-14.57852539 83.73485352 -14.01520508 84.19504883 -13.43481445 84.66918945 C-11.26508027 87.36333068 -11.56299532 90.63747998 -11.4543457 93.9621582 C-11.42018555 94.66405273 -11.38602539 95.36594727 -11.35083008 96.08911133 C-11.26854623 97.81707208 -11.2035133 99.54583893 -11.1418457 101.2746582 C-5.42892092 97.50743969 0.20896712 93.65037305 5.79174805 89.69262695 C9.1803417 87.36737271 11.11456871 87.14723725 15.20654297 87.1328125 C16.32498093 87.12577805 17.44341888 87.11874359 18.5957489 87.11149597 C19.81027237 87.1073317 21.02479584 87.10316742 22.27612305 87.09887695 C24.83537602 87.07567374 27.39462083 87.05155621 29.95385742 87.02661133 C33.99820929 86.99026531 38.04241061 86.96048632 42.08691406 86.94873047 C45.98368794 86.93323965 49.87958199 86.89301266 53.77612305 86.84887695 C54.98052536 86.85078537 56.18492767 86.85269379 57.42582703 86.85466003 C64.10220559 86.75758734 68.48109732 86.36901232 73.8581543 82.2746582 C77.46469294 77.62412153 78.97107155 74.1045837 79.03515625 68.27172852 C79.04799149 67.25346985 79.06082672 66.23521118 79.0740509 65.18609619 C79.08143784 64.08610291 79.08882477 62.98610962 79.09643555 61.8527832 C79.10854317 60.15276154 79.10854317 60.15276154 79.12089539 58.418396 C79.13473331 56.01763437 79.14545677 53.61685309 79.15332031 51.21606445 C79.17052157 47.55292249 79.2144106 43.89068568 79.25854492 40.2277832 C79.26867301 37.8944565 79.27718875 35.56112213 79.28393555 33.2277832 C79.31019768 31.58993866 79.31019768 31.58993866 79.33699036 29.91900635 C79.31618858 22.58919061 78.31975295 18.14350376 73.33081055 12.56762695 C67.95905164 8.3565251 63.97702215 7.02834515 57.17529297 6.98413086 C56.52417038 6.97741364 55.87304779 6.97069641 55.20219421 6.96377563 C53.06009178 6.9448547 50.91830373 6.94087431 48.77612305 6.9387207 C47.27785618 6.93228796 45.77959056 6.92555924 44.28132629 6.91854858 C41.14341319 6.90659009 38.00561005 6.90286621 34.86767578 6.90405273 C30.86297109 6.90425568 26.85897796 6.8769728 22.85444164 6.84250832 C19.75988073 6.82017805 16.6654893 6.81621708 13.57085609 6.81727219 C12.09537622 6.8149247 10.61989107 6.80614949 9.1444912 6.79060745 C-0.30669059 6.70037876 -8.32671249 6.69044502 -15.0168457 14.2746582 Z " fill="#50494A" transform="translate(100.141845703125,80.725341796875)"/>
<path d="M0 0 C2.55380892 2.55380892 3.01849473 4.73791605 4.0625 8.1875 C4.40410156 9.29480469 4.74570313 10.40210937 5.09765625 11.54296875 C6.92124443 18.52944294 7.15952374 25.29365173 7.16796875 32.46484375 C7.17296135 33.95305382 7.17296135 33.95305382 7.17805481 35.47132874 C7.18309852 37.56152892 7.18546393 39.65173709 7.18530273 41.74194336 C7.18749058 44.92380117 7.20567743 48.10531271 7.22460938 51.28710938 C7.22754364 53.32551966 7.22952821 55.36393157 7.23046875 57.40234375 C7.23765427 58.34528793 7.24483978 59.28823212 7.25224304 60.25975037 C7.22280899 68.84856809 6.24760845 76.65947386 0 83 C-7.73932361 88.50337447 -15.05406148 88.58378161 -24.265625 88.28515625 C-25.63022475 88.26774043 -26.99488108 88.25434851 -28.35955811 88.24473572 C-34.10007893 88.19988424 -39.83827576 88.10627324 -45.57666016 87.94213867 C-63.6877433 86.665239 -63.6877433 86.665239 -79.78045654 93.16246033 C-81.86550601 95.17679946 -83.70502535 97.33246481 -85.55285645 99.56271362 C-89.10382281 103.08949268 -93.74246354 104.75731752 -98.5625 105.6875 C-103.42878988 104.71424202 -106.07688697 101.92710017 -109 98 C-109 97.34 -109 96.68 -109 96 C-109.66 96 -110.32 96 -111 96 C-111 95.34 -111 94.68 -111 94 C-112.32 93.67 -113.64 93.34 -115 93 C-113.71867187 93.04382813 -112.43734375 93.08765625 -111.1171875 93.1328125 C-96.15729925 93.25461444 -88.90814791 89.12792143 -78.08251953 79.37036133 C-73.02365904 75.81704079 -67.60617179 76.34695641 -61.63671875 76.43359375 C-59.8559771 76.42514183 -59.8559771 76.42514183 -58.03926086 76.41651917 C-54.2549366 76.40009848 -50.47178315 76.41557819 -46.6875 76.4375 C-42.91403604 76.45414444 -39.14135085 76.46310793 -35.36787415 76.44776917 C-33.02492506 76.43855928 -30.68181033 76.44741583 -28.33903503 76.47740173 C-21.29097531 76.45398975 -15.15206701 75.66104767 -9 72 C-3.30951836 66.27143071 -0.78726553 60.09460188 -0.68115234 51.99462891 C-0.66128265 50.83387848 -0.64141296 49.67312805 -0.62094116 48.47720337 C-0.60938995 47.23949188 -0.59783875 46.0017804 -0.5859375 44.7265625 C-0.56657135 43.44768158 -0.5472052 42.16880066 -0.5272522 40.85116577 C-0.47771721 37.46792838 -0.43639765 34.08479618 -0.39910889 30.70141602 C-0.35894517 27.24225227 -0.30790956 23.78325037 -0.2578125 20.32421875 C-0.16189296 13.54958356 -0.0768079 6.77487737 0 0 Z " fill="#B78A5A" transform="translate(185,98)"/>
<path d="M0 0 C0.845625 0.515625 1.69125 1.03125 2.5625 1.5625 C6.58736786 3.24562656 8.80214298 2.92352855 13 2 C13.15855469 2.845625 13.31710938 3.69125 13.48046875 4.5625 C15.66260625 15.1717873 18.86095413 22.76632485 28 29 C32.69140512 31.75578494 36.14689522 32.38675838 41.56591797 32.43237305 C42.29831192 32.4425647 43.03070587 32.45275635 43.78529358 32.46325684 C46.18767058 32.49326668 48.58964808 32.50263405 50.9921875 32.51171875 C52.66514397 32.5285744 54.33808784 32.54672584 56.01101685 32.56611633 C60.40035058 32.61352641 64.78963323 32.64339378 69.17913818 32.66955566 C73.66379889 32.6994067 78.14828375 32.74592139 82.6328125 32.79101562 C91.42180302 32.87694653 100.21077552 32.94279577 109 33 C109 37.62 109 42.24 109 47 C99.4284859 47.11344792 89.85742619 47.20497153 80.28538895 47.25906086 C75.83957981 47.2850352 71.39425878 47.32020726 66.94873047 47.37719727 C62.64983142 47.43195587 58.35139862 47.46151174 54.05217743 47.47438622 C52.42086203 47.48354818 50.78956903 47.50143728 49.1584549 47.52865028 C34.87756197 47.75719831 22.94036943 44.76480114 12 35 C2.83888785 24.39702375 -0.28152492 13.79472098 0 0 Z " fill="#58B46D" transform="translate(19,192)"/>
<path d="M0 0 C0.7653992 10.80063321 -1.26563037 20.65504552 -8.3125 29.12890625 C-8.869375 29.74636719 -9.42625 30.36382812 -10 31 C-10.598125 31.68964844 -11.19625 32.37929687 -11.8125 33.08984375 C-18.47154347 40.29933234 -27.58599613 45.56310111 -37.53085327 46.24050903 C-38.83213165 46.23606781 -40.13341003 46.23162659 -41.47412109 46.22705078 C-42.55808167 46.22748886 -42.55808167 46.22748886 -43.66394043 46.22793579 C-46.03389828 46.22655116 -48.4035351 46.21103127 -50.7734375 46.1953125 C-52.42395862 46.19157928 -54.07448197 46.18873377 -55.7250061 46.18673706 C-60.05525909 46.17912492 -64.3853765 46.15949736 -68.71557617 46.1373291 C-73.13979255 46.11681841 -77.56403097 46.1077242 -81.98828125 46.09765625 C-90.65892311 46.07624904 -99.32942904 46.04108676 -108 46 C-108 41.38 -108 36.76 -108 32 C-105.76992187 31.9906543 -103.53984375 31.98130859 -101.2421875 31.97167969 C-93.85400535 31.93783346 -86.46610027 31.8822422 -79.07814026 31.81609726 C-74.60107001 31.7766758 -70.12419487 31.74446131 -65.64697266 31.72900391 C-61.32194587 31.713802 -56.99745569 31.67929437 -52.67266846 31.63169098 C-51.02700478 31.61691347 -49.38126448 31.60896108 -47.73553467 31.60811615 C-37.53494439 31.59761703 -28.99933526 31.50924613 -21.25 23.875 C-15.20234266 17.41311956 -13.55428405 9.5914028 -13 1 C-11.14375 1.309375 -11.14375 1.309375 -9.25 1.625 C-5.43259169 2.11822267 -3.23674319 0 0 0 Z " fill="#37A7A3" transform="translate(237,193)"/>
<path d="M0 0 C0.5775 0.309375 1.155 0.61875 1.75 0.9375 C3.88062894 2.10648926 3.88062894 2.10648926 5.9453125 2.15234375 C8 3 8 3 9.6328125 5.9140625 C10.12523437 7.13867188 10.61765625 8.36328125 11.125 9.625 C11.62257812 10.83414063 12.12015625 12.04328125 12.6328125 13.2890625 C13.08398438 14.51367188 13.53515625 15.73828125 14 17 C14.35220612 17.94865936 14.70441223 18.89731873 15.06729126 19.87472534 C16.68050552 25.67297426 16.29471513 31.74780108 16.29052734 37.71533203 C16.29651895 39.10412454 16.30332594 40.49291373 16.31088257 41.88169861 C16.32849059 45.64031952 16.33323589 49.39884925 16.33451414 53.15750742 C16.33593984 55.5116701 16.34021745 57.86580991 16.34550858 60.21996689 C16.36399529 68.45004486 16.37218134 76.68005821 16.37060547 84.91015625 C16.3694061 92.5531029 16.39047164 100.19576624 16.4220928 107.83864129 C16.44835039 114.42238399 16.45896873 121.00603474 16.45769465 127.58982933 C16.45718757 131.51213738 16.46272795 135.43419374 16.48405075 139.35644913 C16.50359262 143.05187158 16.50345052 146.74680649 16.48901749 150.44224739 C16.48597058 152.42329939 16.50249564 154.40435229 16.51989746 156.3853302 C16.42241723 170.45694679 12.49184919 182.70133629 2.96875 193.25 C-2.62368768 198.59928822 -8.975581 201.86218847 -16 205 C-16 205.66 -16 206.32 -16 207 C-36.2534783 207.09342076 -56.5069129 207.16396813 -76.76056194 207.20724869 C-86.16458524 207.22787831 -95.56847471 207.25600654 -104.97241211 207.30175781 C-113.16841448 207.34161335 -121.36431993 207.36742991 -129.56041652 207.37635398 C-133.90066163 207.38157092 -138.24062946 207.3938408 -142.58078575 207.42292023 C-146.66590593 207.45006915 -150.75063458 207.45844613 -154.83583641 207.45243073 C-156.3350487 207.45353121 -157.83427408 207.46148849 -159.33340836 207.4768219 C-161.38096391 207.49673747 -163.42872951 207.48955115 -165.47636414 207.48101807 C-167.19504715 207.48654882 -167.19504715 207.48654882 -168.94845104 207.49219131 C-172.66105238 206.89337735 -174.25741117 205.50452918 -177 203 C-178.58088408 202.1824792 -180.18602923 201.41008394 -181.8125 200.6875 C-192.59064649 195.39437465 -199.78003365 186.6905592 -203.875 175.375 C-206.26995548 166.76149598 -206.16085399 157.95032464 -206.19287109 149.07080078 C-206.20104858 147.80278122 -206.20922607 146.53476166 -206.21765137 145.22831726 C-206.24365516 141.05067003 -206.25916101 136.87301388 -206.2734375 132.6953125 C-206.2788068 131.24545158 -206.28418431 129.79559069 -206.28956985 128.34572983 C-206.31117022 122.3045316 -206.32989813 116.2633358 -206.34119225 110.22210884 C-206.35737913 101.62658456 -206.39046079 93.0315158 -206.44759309 84.43616307 C-206.48658337 78.35845295 -206.50585913 72.28086313 -206.51111281 66.20303142 C-206.51472791 62.59009278 -206.52632944 58.97764222 -206.55921555 55.36484146 C-206.69440474 39.75978584 -206.72295707 24.74867215 -201 10 C-200.34 9.34 -199.68 8.68 -199 8 C-198.01 8 -197.02 8 -196 8 C-196.47305928 12.25753355 -196.97808265 14.07442767 -200 17 C-203.45285476 24.00018644 -203.4533603 30.49261811 -203.46411133 38.20214844 C-203.47751556 39.51052673 -203.4909198 40.81890503 -203.50473022 42.16693115 C-203.54070228 45.73739137 -203.55832595 49.30772258 -203.57197404 52.87832928 C-203.58889074 56.63105309 -203.6209486 60.3836525 -203.65080261 64.1362915 C-203.69860534 70.44076358 -203.73462952 76.74521887 -203.76342773 83.04980469 C-203.79672511 90.31167922 -203.84775445 97.57326062 -203.90858442 104.83495307 C-203.96698906 111.84866066 -204.01347213 118.86239843 -204.05438805 125.87622833 C-204.07187597 128.84723064 -204.09329153 131.81816481 -204.11795998 134.78911591 C-204.15182345 138.95283152 -204.16816517 143.11644605 -204.18286133 147.28027344 C-204.19468948 148.49626221 -204.20651764 149.71225098 -204.21870422 150.96508789 C-204.2307838 161.40825005 -203.5001568 171.22873586 -198.5625 180.5625 C-197.96566406 181.71878906 -197.36882812 182.87507812 -196.75390625 184.06640625 C-195.29648381 186.50409946 -194.01295379 188.07322772 -192 190 C-192 190.66 -192 191.32 -192 192 C-191.2265625 192.3403125 -191.2265625 192.3403125 -190.4375 192.6875 C-188 194 -188 194 -184.9375 196.375 C-174.97024444 203.45631009 -164.26747479 203.60328338 -152.51953125 203.609375 C-150.85371821 203.62438379 -149.18791989 203.64111653 -147.5221405 203.65948486 C-143.17393243 203.70286821 -138.82592497 203.72309243 -134.47753906 203.73822021 C-130.02592242 203.75789688 -125.57451918 203.79985442 -121.12304688 203.83984375 C-112.41539474 203.91483111 -103.70789753 203.96324846 -95 204 C-95 199.38 -95 194.76 -95 190 C-119.09 190 -143.18 190 -168 190 C-168 189.67 -168 189.34 -168 189 C-143.91 189 -119.82 189 -95 189 C-95 187.35 -95 185.7 -95 184 C-96.36516251 184.00666183 -96.36516251 184.00666183 -97.75790405 184.01345825 C-106.32206579 184.05348176 -114.88619626 184.08395726 -123.45042992 184.10362434 C-127.85371251 184.11407518 -132.25691802 184.12825796 -136.66015625 184.15087891 C-140.90709824 184.17256112 -145.15396596 184.18455883 -149.40095901 184.18975449 C-151.02373042 184.19345858 -152.64649762 184.20069146 -154.26923752 184.21146011 C-156.53684117 184.2259138 -158.80413528 184.22798054 -161.07177734 184.22705078 C-162.36417328 184.231492 -163.65656921 184.23593323 -164.98812866 184.24050903 C-168 184 -168 184 -170 182 C-169.24462196 182.00368717 -168.48924393 182.00737434 -167.71097565 182.01117325 C-149.31538735 182.09958124 -130.91984155 182.16573731 -112.524086 182.20724869 C-103.6279588 182.22785782 -94.73197357 182.25594681 -85.8359375 182.30175781 C-78.08048579 182.34167616 -70.32513692 182.3674448 -62.56958532 182.37635398 C-58.46453969 182.3815603 -54.35978822 182.39376238 -50.25483704 182.42292023 C-46.38720735 182.45016852 -42.51999165 182.45842615 -38.65227509 182.45243073 C-37.23656206 182.45352678 -35.82083449 182.46142479 -34.40520477 182.4768219 C-24.79900546 182.57613612 -18.37573719 182.09036303 -11.125 175.3125 C-10.42375 174.549375 -9.7225 173.78625 -9 173 C-8.34 172.67 -7.68 172.34 -7 172 C-9.71234046 179.16832837 -9.71234046 179.16832837 -12.78707886 181.15423584 C-21.02053524 184.79921597 -29.14041473 184.51067187 -37.9453125 184.390625 C-39.56769101 184.38315036 -41.19007865 184.37746322 -42.81246948 184.37347412 C-47.05079757 184.35831378 -51.28856389 184.31911704 -55.52667236 184.2746582 C-59.86405848 184.23349629 -64.20153672 184.21541876 -68.5390625 184.1953125 C-77.02629741 184.15261154 -85.51307852 184.08447938 -94 184 C-94 185.65 -94 187.3 -94 189 C-69.91 189 -45.82 189 -21 189 C-21 189.33 -21 189.66 -21 190 C-45.09 190 -69.18 190 -94 190 C-94 194.62 -94 199.24 -94 204 C-84.5757847 203.98218485 -75.15228808 203.94311488 -65.72835255 203.86790943 C-61.35114166 203.83380081 -56.97427382 203.8085548 -52.59692383 203.80444336 C-48.36256891 203.80012545 -44.1289857 203.7713779 -39.89487267 203.72656822 C-38.28962407 203.71370369 -36.68428258 203.70924578 -35.07898903 203.71384621 C-22.80271319 203.7408017 -10.66893469 202.61905201 -1.4375 193.5 C-0.67308594 192.7678125 0.09132812 192.035625 0.87890625 191.28125 C11.9030107 179.4247546 14.47612454 166.61395654 14.34399414 150.72290039 C14.34310581 149.32204716 14.34346765 147.92119267 14.3449707 146.52033997 C14.34472666 142.7474298 14.32497345 138.97487387 14.29984212 135.20205617 C14.28011109 132.03882882 14.26890204 128.87559074 14.25725454 125.71232504 C14.22912914 118.24338971 14.18381881 110.77468851 14.12866211 103.3059082 C14.07236616 95.62996196 14.04947156 87.95440996 14.04229838 80.2782746 C14.03467433 73.65948213 14.0039641 67.04105306 13.95557493 60.42243379 C13.92712291 56.48175143 13.90757952 52.54155041 13.91127205 48.60075569 C13.91392362 44.89259951 13.88755435 41.1857132 13.83992767 37.47787285 C13.82132286 35.48842769 13.83169336 33.4987756 13.8433075 31.50927734 C13.63816524 19.66597709 9.46891057 10.94477014 1.3203125 2.42578125 C0 1 0 1 0 0 Z " fill="#3A3B3A" transform="translate(223,35)"/>
<path d="M0 0 C4.87903347 1.77419399 6.99231613 3.82670687 9.19056511 8.52559471 C10.78210764 13.39086713 10.54146364 18.35485436 10.49829102 23.42700195 C10.50380981 24.65230118 10.50932861 25.8776004 10.51501465 27.14002991 C10.52431475 29.79005221 10.52652444 32.43892431 10.51642036 35.08883095 C10.50078935 39.27845516 10.51458329 43.46767587 10.53245544 47.65727234 C10.56318589 55.78692934 10.56477865 63.91646111 10.56280518 72.04616547 C10.56140929 82.41248049 10.57171405 92.77870051 10.6113829 103.14494485 C10.6263245 107.310625 10.62604213 111.47594506 10.61390507 115.64163077 C10.60809942 118.834437 10.62121843 122.0271803 10.63110352 125.2199707 C10.62338425 126.37480957 10.61566498 127.52964844 10.60771179 128.71948242 C10.6144693 129.77222855 10.62122681 130.82497467 10.62818909 131.90962219 C10.62760278 132.82563359 10.62701647 133.74164499 10.62641239 134.68541431 C10.82652259 137.05491363 10.82652259 137.05491363 12.33573818 138.79861736 C14.89311949 140.64471722 16.93805382 140.31895273 20 140 C20.99 139.34 21.98 138.68 23 138 C24 139 24 139 24.09765625 142.16015625 C24.08605469 143.44792969 24.07445312 144.73570312 24.0625 146.0625 C24.05347656 147.35285156 24.04445313 148.64320313 24.03515625 149.97265625 C24.02355469 150.97167969 24.01195312 151.97070312 24 153 C23.67 153 23.34 153 23 153 C22.67 151.02 22.34 149.04 22 147 C21.46375 147.350625 20.9275 147.70125 20.375 148.0625 C17.2365758 149.30135166 15.23787556 148.77427459 12 148 C11.34 147.67 10.68 147.34 10 147 C10.0825 148.27875 10.165 149.5575 10.25 150.875 C10.20137221 158.61897577 7.54782586 164.75388161 2.25 170.375 C-3.78007603 176.32906666 -9.45609995 178.35472495 -17.79296875 178.36230469 C-20.92577446 178.33482732 -24.05577837 178.25597965 -27.1875 178.171875 C-28.85755335 178.14193836 -30.52764037 178.1138295 -32.19775391 178.08746338 C-36.57116534 178.0135497 -40.94367868 177.91497454 -45.31646729 177.81109619 C-49.78752251 177.70930334 -54.25898466 177.63106052 -58.73046875 177.55078125 C-67.4875447 177.39011522 -76.24381215 177.20336977 -85 177 C-85 175.35 -85 173.7 -85 172 C-83.66148483 171.99453156 -83.66148483 171.99453156 -82.29592896 171.98895264 C-73.85175798 171.95095363 -65.40796855 171.89396654 -56.96406746 171.81609726 C-52.62381693 171.77672937 -48.28376603 171.74448888 -43.94335938 171.72900391 C-39.74799424 171.71376636 -35.55317834 171.67919675 -31.35805893 171.63169098 C-29.76428906 171.61694988 -28.17044075 171.60896319 -26.57660294 171.60811615 C-13.79753459 171.60172138 -13.79753459 171.60172138 -2 167 C0.09762034 164.89299553 0.09762034 164.89299553 1 162 C1.24611558 161.4179052 1.49223116 160.83581039 1.74580479 160.23607635 C4.42248585 153.3051926 4.43049092 146.72170145 4.40405273 139.36132812 C4.40976564 138.00515687 4.41673344 136.64899042 4.42485046 135.29283142 C4.44269353 131.63371567 4.44163059 127.97484088 4.43590808 124.31569481 C4.43280397 121.25166448 4.43892206 118.18767963 4.44494683 115.1236558 C4.45896075 107.89180578 4.45745638 100.66007398 4.44604492 93.42822266 C4.43456084 85.98622226 4.44865118 78.54458213 4.4754414 71.10262918 C4.49764205 64.69384185 4.50422615 58.28516724 4.49836498 51.8763442 C4.49500532 48.05704708 4.49734434 44.23798094 4.51461601 40.41871643 C4.53015362 36.82667006 4.52605517 33.23515524 4.50731087 29.64312935 C4.50190568 27.70905337 4.51608624 25.77495311 4.53100586 23.84092712 C4.47688812 17.4082315 3.95303691 12.50092732 0.88177586 6.78833771 C-0.26165464 4.46933582 -0.32828394 2.5442005 0 0 Z " fill="#413B3C" transform="translate(214,47)"/>
<path d="M0 0 C2.08623741 4.17247482 3.12476964 6.65754949 3.12457275 11.38772583 C3.12841728 13.10361656 3.12841728 13.10361656 3.13233948 14.85417175 C3.13023972 16.11546402 3.12813995 17.37675629 3.12597656 18.67626953 C3.12737104 20.01332153 3.12927016 21.35037308 3.13163757 22.68742371 C3.13613935 25.57121256 3.13799077 28.45498717 3.13809967 31.33877945 C3.13923936 35.90304423 3.15207419 40.46722798 3.16766357 45.03146362 C3.17152285 46.18684684 3.17152285 46.18684684 3.1754601 47.36557114 C3.18072697 48.94096254 3.18601245 50.51635387 3.19131613 52.09174514 C3.22641709 62.7190533 3.25298166 73.34626189 3.25048828 83.97363281 C3.24889739 91.13958237 3.26499166 98.30525653 3.30119491 105.47111785 C3.31962404 109.2620363 3.32902519 113.05249518 3.31671906 116.84344864 C3.30524103 120.41418476 3.31708073 123.98410023 3.34635353 127.55472755 C3.35610765 129.48069178 3.34126743 131.4067321 3.32554626 133.33265686 C3.41066714 140.47107468 4.1537996 145.5491191 9 151 C11.34628961 153.04714717 11.34628961 153.04714717 13.8125 154.375 C15.23508116 155.20580596 16.6403039 156.06983753 18 157 C18 157.66 18 158.32 18 159 C42.75 159.33 67.5 159.66 93 160 C93 161.65 93 163.3 93 165 C83.39456433 165.27067516 73.7890457 165.50748369 64.1817646 165.70202446 C59.71985933 165.79341918 55.25883286 165.89611802 50.79785156 166.02539062 C46.48633385 166.14990374 42.17510408 166.24375586 37.86242294 166.31708145 C36.22368982 166.3501957 34.58513454 166.39403973 32.94699478 166.44918442 C21.92398173 166.81117736 14.3384903 165.80288487 5.90603638 158.08297729 C0.24877459 152.45925524 -2.71338109 145.22762888 -3.25 137.3125 C-3.1675 136.549375 -3.085 135.78625 -3 135 C-3.556875 135.350625 -4.11375 135.70125 -4.6875 136.0625 C-7.59885163 137.24277769 -9.02993989 136.91386465 -12 136 C-12.99 135.34 -13.98 134.68 -15 134 C-15.66 134.99 -16.32 135.98 -17 137 C-17 133.37 -17 129.74 -17 126 C-16.01 126 -15.02 126 -14 126 C-13.34 126.66 -12.68 127.32 -12 128 C-7.85490567 128.28602162 -7.85490567 128.28602162 -4 127 C-3.99761165 126.36370257 -3.99522329 125.72740515 -3.99276257 125.07182598 C-3.93366025 109.59865169 -3.85814108 94.1256582 -3.76428509 78.65265942 C-3.71929431 71.17006525 -3.67988734 63.68751903 -3.65356445 56.20483398 C-3.63061081 49.68391621 -3.59724259 43.16314975 -3.55129844 36.64235193 C-3.52733035 33.18870653 -3.50862522 29.73521132 -3.50238609 26.2814846 C-3.49523098 22.42861836 -3.4648273 18.57612911 -3.43237305 14.72338867 C-3.43380814 13.57468292 -3.43524323 12.42597717 -3.4367218 11.24246216 C-3.42418365 10.19498306 -3.41164551 9.14750397 -3.39872742 8.06828308 C-3.39411845 7.15662982 -3.38950949 6.24497656 -3.38476086 5.30569744 C-2.93062096 2.58424287 -2.11858881 1.69942208 0 0 Z " fill="#645847" transform="translate(35,59)"/>
<path d="M0 0 C9.24162783 -0.18197692 18.48203316 -0.32820674 27.72505951 -0.41449738 C32.01872725 -0.45594872 36.31108812 -0.51200817 40.60400391 -0.60351562 C44.76035561 -0.69154028 48.91546456 -0.73849894 53.07267761 -0.75901794 C54.64498933 -0.7736067 56.21724621 -0.80208627 57.78901672 -0.84584045 C71.32657355 -1.20711275 80.74417073 2.49611382 92 10 C91.67 10.99 91.34 11.98 91 13 C85.25 14.125 85.25 14.125 83 13 C80.46714949 12.90707072 77.96206407 12.87418316 75.42919922 12.88647461 C74.64862152 12.88632858 73.86804382 12.88618256 73.06381226 12.8860321 C70.47740931 12.88673014 67.89107791 12.89451743 65.3046875 12.90234375 C63.51392659 12.90420832 61.72316517 12.90563204 59.93240356 12.90663147 C55.21415809 12.91045359 50.4959433 12.92028129 45.77770996 12.93133545 C40.96509211 12.94155611 36.15246932 12.9461305 31.33984375 12.95117188 C21.89321567 12.96190381 12.44661038 12.9789766 3 13 C2.67 14.98 2.34 16.96 2 19 C2.82526184 18.99111755 3.65052368 18.98223511 4.50079346 18.9730835 C12.32598612 18.89251679 20.15103696 18.83182363 27.97655106 18.79275131 C31.99854661 18.7719876 36.02019586 18.74387901 40.04199219 18.69824219 C43.93239433 18.65437894 47.82246604 18.63077885 51.71309662 18.62049103 C53.18808942 18.61317145 54.66306672 18.59888076 56.13791656 18.57707977 C69.16636578 18.39237517 79.9855443 20.16371556 90 29 C89.67 29.66 89.34 30.32 89 31 C88.5153125 30.60167969 88.030625 30.20335938 87.53125 29.79296875 C86.8609375 29.26316406 86.190625 28.73335937 85.5 28.1875 C84.8503125 27.66542969 84.200625 27.14335938 83.53125 26.60546875 C74.87955347 21.11805012 66.12318374 21.52691796 56.25 21.48828125 C54.62474222 21.47141579 52.99949733 21.45326306 51.37426758 21.43388367 C47.11977163 21.38657996 42.86532799 21.35664416 38.61065674 21.33044434 C34.25986405 21.30053918 29.90925122 21.2540433 25.55859375 21.20898438 C17.03913641 21.12317473 8.51969706 21.05726623 0 21 C0 14.07 0 7.14 0 0 Z " fill="#D8A07F" transform="translate(129,18)"/>
<path d="M0 0 C0.68377213 -0.00014603 1.36754425 -0.00029205 2.07203674 -0.0004425 C4.30660298 0.00024784 6.54108329 0.00799863 8.77563477 0.01586914 C10.33504694 0.01773645 11.89445971 0.01915887 13.45387268 0.02015686 C17.53910977 0.02395743 21.62431077 0.03376648 25.70953369 0.04486084 C29.88585929 0.05512808 34.06219078 0.05966582 38.23852539 0.06469727 C46.41888041 0.07539116 54.59920621 0.09243774 62.77954102 0.11352539 C62.77954102 2.75352539 62.77954102 5.39352539 62.77954102 8.11352539 C35.38954102 8.11352539 7.99954102 8.11352539 -20.22045898 8.11352539 C-20.22045898 6.79352539 -20.22045898 5.47352539 -20.22045898 4.11352539 C-13.6013799 0.40038347 -7.48655811 -0.01353808 0 0 Z " fill="#F4E1BD" transform="translate(65.220458984375,17.886474609375)"/>
<path d="M0 0 C1.72364051 2.24073266 3.22998723 4.40690048 4.625 6.875 C7.3901856 10.51340211 10.29136862 12.37482117 14.171875 14.703125 C14.77515625 15.13109375 15.3784375 15.5590625 16 16 C16 16.66 16 17.32 16 18 C40.75 18.33 65.5 18.66 91 19 C91 20.65 91 22.3 91 24 C81.39456433 24.27067516 71.7890457 24.50748369 62.1817646 24.70202446 C57.71985933 24.79341918 53.25883286 24.89611802 48.79785156 25.02539062 C44.48633385 25.14990374 40.17510408 25.24375586 35.86242294 25.31708145 C34.22368982 25.3501957 32.58513454 25.39403973 30.94699478 25.44918442 C21.3558876 25.76415394 13.63691839 25.60965778 6 19 C2.35913359 15.38538428 -1.05208638 11.81359423 -3 7 C-3 5.68 -3 4.36 -3 3 C-2.34 3 -1.68 3 -1 3 C-0.67 2.01 -0.34 1.02 0 0 Z " fill="#434D55" transform="translate(37,200)"/>
<path d="M0 0 C6.71786891 6.71786891 5.34814781 22.41936285 5.37106323 31.24234009 C5.36454188 33.27673583 5.35286583 35.31112121 5.33618164 37.34545898 C5.31235466 40.4564769 5.31567279 43.5666468 5.32226562 46.67773438 C5.31669421 48.67969256 5.30958772 50.68164719 5.30078125 52.68359375 C5.30169266 53.6014415 5.30260406 54.51928925 5.30354309 55.46495056 C5.21061803 63.96521278 4.18019697 71.73312852 -2 78 C-9.66320277 83.40583663 -16.9793093 83.67499617 -26.1015625 83.48828125 C-27.41917572 83.48120651 -28.73678894 83.47413177 -30.09432983 83.46684265 C-33.56350904 83.4479338 -37.031608 83.39897933 -40.50036621 83.34332275 C-44.05348098 83.29177656 -47.60677375 83.26925397 -51.16015625 83.24414062 C-58.10720899 83.19083921 -65.05355235 83.1057287 -72 83 C-72 82.67 -72 82.34 -72 82 C-44.775 81.505 -44.775 81.505 -17 81 C-16.505 79.02 -16.505 79.02 -16 77 C-14.0390625 75.18359375 -14.0390625 75.18359375 -11.625 73.4375 C-5.38666686 68.87559189 -2.6647285 65.64710939 -1 58 C-0.56128687 53.47669756 -0.51202919 48.97596219 -0.48828125 44.43359375 C-0.46135445 42.52163963 -0.46135445 42.52163963 -0.43388367 40.57106018 C-0.38912966 37.21244931 -0.35670432 33.85419521 -0.33044434 30.49542236 C-0.30045436 27.0560616 -0.25398838 23.61692565 -0.20898438 20.17773438 C-0.12427557 13.45192753 -0.05583719 6.7261052 0 0 Z " fill="#C4955C" transform="translate(187,103)"/>
<path d="M0 0 C0.99 0 1.98 0 3 0 C3.46378072 5.79725898 2.7346093 8.53668644 -1 13 C-7.0079435 19.1819187 -11.69882712 22.70282752 -20.61314392 23.20254517 C-21.8944368 23.18033905 -23.17572968 23.15813293 -24.49584961 23.13525391 C-25.20888245 23.12579239 -25.92191528 23.11633087 -26.65655518 23.10658264 C-28.98876187 23.07318667 -31.32040515 23.02499737 -33.65234375 22.9765625 C-35.27900261 22.95036619 -36.90567672 22.92510156 -38.53236389 22.90072632 C-42.79533317 22.83436107 -47.05797827 22.75540773 -51.32067871 22.67376709 C-55.67785281 22.59256678 -60.03521595 22.52336154 -64.39257812 22.453125 C-72.92861488 22.3137748 -81.46434644 22.16111592 -90 22 C-90 20.35 -90 18.7 -90 17 C-88.66148483 16.99453156 -88.66148483 16.99453156 -87.29592896 16.98895264 C-78.85175798 16.95095363 -70.40796855 16.89396654 -61.96406746 16.81609726 C-57.62381693 16.77672937 -53.28376603 16.74448888 -48.94335938 16.72900391 C-44.74799424 16.71376636 -40.55317834 16.67919675 -36.35805893 16.63169098 C-34.76428906 16.61694988 -33.17044075 16.60896319 -31.57660294 16.60811615 C-18.7651466 16.6676609 -18.7651466 16.6676609 -7 12 C-4.5013957 9.09818361 -4.5013957 9.09818361 -3.0625 5.75 C-1.47265625 2.484375 -1.47265625 2.484375 0 0 Z " fill="#3D4B5A" transform="translate(219,202)"/>
<path d="M0 0 C23.76 0 47.52 0 72 0 C72.99 1.98 72.99 1.98 74 4 C74.99 4.99 75.98 5.98 77 7 C51.59 7 26.18 7 0 7 C0 4.69 0 2.38 0 0 Z " fill="#FAD2B7" transform="translate(129,19)"/>
<path d="M0 0 C1.34439732 -0.00463513 2.68879334 -0.00966071 4.03318787 -0.01504517 C7.66969199 -0.02810233 11.30617771 -0.03460073 14.94270158 -0.03905582 C17.21910931 -0.04199675 19.49551211 -0.04610339 21.77191734 -0.05056 C28.90743415 -0.06421592 36.04293957 -0.07389247 43.17846853 -0.07776189 C51.39139434 -0.08224125 59.60415362 -0.09979145 67.81702882 -0.12876248 C74.18245746 -0.15043092 80.54783941 -0.16046888 86.91330451 -0.16180301 C90.70748964 -0.16284713 94.50151781 -0.1686711 98.29566383 -0.18662262 C101.86706626 -0.20319354 105.43819522 -0.20521555 109.00962257 -0.19648361 C110.93041613 -0.19535566 112.85120099 -0.20900215 114.77194214 -0.22323608 C123.06535967 -0.18358297 130.65623276 0.4679247 137.69604492 5.16113281 C137.36604492 6.15113281 137.03604492 7.14113281 136.69604492 8.16113281 C132.9882282 9.39707172 132.02094239 8.72894601 128.50854492 7.22363281 C127.15696289 6.65322266 127.15696289 6.65322266 125.77807617 6.07128906 C124.7474707 5.62076172 124.7474707 5.62076172 123.69604492 5.16113281 C123.69604492 4.83113281 123.69604492 4.50113281 123.69604492 4.16113281 C76.17604492 4.16113281 28.65604492 4.16113281 -20.30395508 4.16113281 C-20.30395508 3.17113281 -20.30395508 2.18113281 -20.30395508 1.16113281 C-13.55100436 -0.07868891 -6.84960561 0.00612784 0 0 Z " fill="#564C50" transform="translate(74.303955078125,39.8388671875)"/>
<path d="M0 0 C1.18333923 -0.00563965 2.36667847 -0.0112793 3.58587646 -0.01708984 C4.87026611 -0.01304138 6.15465576 -0.00899292 7.47796631 -0.00482178 C8.85490097 -0.00753408 10.23183418 -0.01109635 11.60876465 -0.01544189 C15.3357339 -0.02453636 19.06259206 -0.02103474 22.78956318 -0.01468372 C26.6910513 -0.00961256 30.59253005 -0.0143179 34.49401855 -0.01745605 C41.04076849 -0.02109071 47.58747324 -0.01630793 54.13421631 -0.0067749 C61.70854686 0.00412689 69.28276988 0.0005696 76.85709786 -0.01042771 C83.36081497 -0.01949318 89.86449966 -0.02079006 96.36822104 -0.01555037 C100.25266265 -0.01242892 104.13705363 -0.01202648 108.021492 -0.01862335 C111.66915701 -0.02438608 115.31668268 -0.02041982 118.96433258 -0.00883484 C120.94629218 -0.00491532 122.92826353 -0.01088176 124.91021729 -0.01708984 C126.08227722 -0.0114502 127.25433716 -0.00581055 128.46191406 0 C129.48468571 0.00075405 130.50745735 0.0015081 131.56122208 0.002285 C133.97698975 0.25396729 133.97698975 0.25396729 135.97698975 2.25396729 C135.24645858 2.25727743 134.51592741 2.26058758 133.76325893 2.26399803 C115.97711121 2.34526454 98.19104971 2.43736899 80.40502071 2.54149437 C71.80378429 2.5915883 63.20255724 2.63803158 54.60125732 2.67584229 C47.10322728 2.70881239 39.6052707 2.74867131 32.1073218 2.79675734 C28.1382569 2.82197247 24.16924042 2.84376841 20.20011711 2.85731125 C16.46137524 2.87017696 12.72279983 2.89227962 8.98414993 2.92135048 C6.96376509 2.93468953 4.94332348 2.93833902 2.92289734 2.94166565 C-5.74613774 2.99383335 -5.74613774 2.99383335 -14.02301025 5.25396729 C-15.34815023 7.11252042 -15.34815023 7.11252042 -16.02301025 9.25396729 C-17.48030725 11.05974835 -19.02492248 12.75607073 -20.58551025 14.47271729 C-23.60244299 18.21109046 -24.27498826 21.11132693 -24.30148315 25.89807129 C-24.31264664 27.0478949 -24.32381012 28.19771851 -24.33531189 29.38238525 C-24.33747208 30.63970459 -24.33963226 31.89702393 -24.34185791 33.19244385 C-24.35115839 34.53292444 -24.36132725 35.87339924 -24.37229919 37.21386719 C-24.39959986 40.84986573 -24.41474875 44.48582552 -24.42772722 48.1218996 C-24.44335749 51.92294573 -24.47014804 55.72391272 -24.49575806 59.52490234 C-24.5425477 66.72126393 -24.5792909 73.9176404 -24.61243093 81.11407638 C-24.65065101 89.30753249 -24.70006147 97.50090914 -24.75041509 105.69429827 C-24.8537377 122.54746379 -24.94299702 139.40067531 -25.02301025 156.25396729 C-25.35301025 156.25396729 -25.68301025 156.25396729 -26.02301025 156.25396729 C-26.16335694 138.28615009 -26.26906741 120.31847572 -26.33388329 102.35022831 C-26.36478241 94.00667528 -26.40688681 85.66346341 -26.47564697 77.32012939 C-26.53557059 70.04553204 -26.57418807 62.77118183 -26.58754122 55.49634451 C-26.59534331 51.64650866 -26.61359559 47.79737968 -26.65739059 43.94777107 C-26.69833784 40.31883175 -26.71063564 36.69088547 -26.70165634 33.06173706 C-26.70407537 31.10598533 -26.73624824 29.15034 -26.76953125 27.19487 C-26.71443533 19.2996042 -25.44998287 14.13586348 -20.02301025 8.25396729 C-13.94434408 2.78622755 -8.33876629 0.00613881 0 0 Z " fill="#EACE90" transform="translate(64.02301025390625,43.74603271484375)"/>
<path d="M0 0 C0.33 0 0.66 0 1 0 C1.45664608 3.65316867 1.6879474 5.87465395 -0.265625 9.0703125 C-1.31197383 10.40618504 -2.3865537 11.72057701 -3.4921875 13.0078125 C-5.13069731 14.95308934 -5.13069731 14.95308934 -5.83325195 17.48120117 C-7.2511572 20.54220315 -8.07265481 21.07131286 -11.17578125 22.29296875 C-20.76877251 25.40095401 -31.22982415 24.45246578 -41.1875 24.3125 C-43.28579845 24.30098959 -45.38410714 24.29121009 -47.48242188 24.28320312 C-49.50261508 24.26978154 -51.52279898 24.25485926 -53.54296875 24.23828125 C-54.47336472 24.23089432 -55.40376068 24.22350739 -56.36235046 24.21589661 C-60.44857526 24.15662338 -64.41507161 23.99566258 -68.46289062 23.41503906 C-75.16499136 22.6286247 -80.02214957 27.27531137 -85.1875 31.0625 C-95.10122914 38.25644167 -95.10122914 38.25644167 -100.6875 38.125 C-101.68136719 38.10695312 -102.67523438 38.08890625 -103.69921875 38.0703125 C-104.83810547 38.03550781 -104.83810547 38.03550781 -106 38 C-105.34 39.65 -104.68 41.3 -104 43 C-106 41.625 -106 41.625 -108 40 C-108 39.34 -108 38.68 -108 38 C-108.66 38 -109.32 38 -110 38 C-110 37.34 -110 36.68 -110 36 C-111.32 35.67 -112.64 35.34 -114 35 C-112.07800781 35.06574219 -112.07800781 35.06574219 -110.1171875 35.1328125 C-95.15729925 35.25461444 -87.90814791 31.12792143 -77.08251953 21.37036133 C-72.02365904 17.81704079 -66.60617179 18.34695641 -60.63671875 18.43359375 C-58.8559771 18.42514183 -58.8559771 18.42514183 -57.03926086 18.41651917 C-53.2549366 18.40009848 -49.47178315 18.41557819 -45.6875 18.4375 C-41.91403604 18.45414444 -38.14135085 18.46310793 -34.36787415 18.44776917 C-32.02492506 18.43855928 -29.68181033 18.44741583 -27.33903503 18.47740173 C-19.65330732 18.45187157 -11.75399044 17.76497488 -6.06010437 12.0544281 C-3.06238335 8.34705615 -1.16449315 4.65797261 0 0 Z " fill="#937656" transform="translate(184,156)"/>
<path d="M0 0 C0 0.33 0 0.66 0 1 C-2.31 1 -4.62 1 -7 1 C-7 1.99 -7 2.98 -7 4 C-6.34 3.67 -5.68 3.34 -5 3 C-3.11211772 2.90630728 -1.22086299 2.87809031 0.66934204 2.87974548 C1.8753154 2.87837082 3.08128876 2.87699615 4.32380676 2.87557983 C5.66720606 2.87911919 7.0106051 2.88275401 8.35400391 2.88647461 C9.76314797 2.88675656 11.17229218 2.88659859 12.58143616 2.8860321 C16.41385292 2.88574445 20.24623857 2.89163602 24.07864809 2.89860606 C28.0811882 2.90484492 32.08372897 2.90544382 36.08627319 2.90663147 C43.66877209 2.90974321 51.25125662 2.91795449 58.83374918 2.92798096 C67.46482646 2.93914696 76.09590442 2.94465378 84.72698712 2.94967639 C102.48466624 2.96013723 120.24233196 2.97773364 138 3 C138 3.33 138 3.66 138 4 C136.92104713 4.00358253 136.92104713 4.00358253 135.82029724 4.00723743 C118.3008143 4.0664285 100.78147834 4.14200482 83.262146 4.23571491 C74.78984828 4.28063961 66.31759229 4.32006192 57.84521484 4.34643555 C50.45884895 4.3694426 43.07261546 4.4028708 35.68635464 4.44870156 C31.77703844 4.47259738 27.86785308 4.49134995 23.95846558 4.49761391 C20.27464581 4.50368133 16.59116065 4.52374046 12.90746498 4.55427551 C10.91948469 4.56718585 8.93142613 4.56549034 6.94340515 4.5632782 C-2.39298153 4.66104141 -9.40522742 5.8445238 -16.4609375 12.3203125 C-21.42043192 17.7329587 -23.11101479 23.36625713 -23.15821838 30.56817627 C-23.1680072 31.70117157 -23.17779602 32.83416687 -23.18788147 34.00149536 C-23.19363693 35.24011322 -23.1993924 36.47873108 -23.20532227 37.75488281 C-23.21522186 39.06244537 -23.22512146 40.37000793 -23.23532104 41.7171936 C-23.26233276 45.29946764 -23.2833625 48.8817548 -23.30332303 52.46407413 C-23.32520564 56.20904488 -23.35258319 59.95397534 -23.37937927 63.69891357 C-23.42927541 70.78903496 -23.47422565 77.87917875 -23.51740164 84.9693439 C-23.56680034 93.04186102 -23.6217087 101.11433773 -23.67708123 109.18681574 C-23.790854 125.79117322 -23.89770327 142.39556777 -24 159 C-24.33 159 -24.66 159 -25 159 C-25 113.46 -25 67.92 -25 21 C-25.99 21 -26.98 21 -28 21 C-25.43426516 12.01992806 -20.01925959 5.76846807 -12.171875 0.85546875 C-7.86632811 -1.26821316 -4.59542546 -1.03162612 0 0 Z " fill="#453F3C" transform="translate(61,40)"/>
<path d="M0 0 C0.99 0 1.98 0 3 0 C4 2 4 2 3.75 3.9375 C3 6 3 6 1.55678082 7.41875839 C-4.29169191 13.35912477 -3.45339618 22.51834283 -3.46411133 30.20214844 C-3.47751556 31.51052673 -3.4909198 32.81890503 -3.50473022 34.16693115 C-3.54070228 37.73739137 -3.55832595 41.30772258 -3.57197404 44.87832928 C-3.58889074 48.63105309 -3.6209486 52.3836525 -3.65080261 56.1362915 C-3.69860534 62.44076358 -3.73462952 68.74521887 -3.76342773 75.04980469 C-3.79672511 82.31167922 -3.84775445 89.57326062 -3.90858442 96.83495307 C-3.96698906 103.84866066 -4.01347213 110.86239843 -4.05438805 117.87622833 C-4.07187597 120.84723064 -4.09329153 123.81816481 -4.11795998 126.78911591 C-4.15182345 130.95283152 -4.16816517 135.11644605 -4.18286133 139.28027344 C-4.19468948 140.49626221 -4.20651764 141.71225098 -4.21870422 142.96508789 C-4.2307838 153.40825005 -3.5001568 163.22873586 1.4375 172.5625 C2.03433594 173.71878906 2.63117187 174.87507812 3.24609375 176.06640625 C4.70351619 178.50409946 5.98704621 180.07322772 8 182 C8 182.66 8 183.32 8 184 C8.7734375 184.3403125 8.7734375 184.3403125 9.5625 184.6875 C12 186 12 186 14.8125 188.3125 C20.38974089 192.44014964 27.44181261 194.01650703 34 196 C34 196.66 34 197.32 34 198 C31.3125 198.75 31.3125 198.75 28 199 C25.75 197.375 25.75 197.375 23 195 C21.41090061 194.19856513 19.80467327 193.43065902 18.1875 192.6875 C7.40935351 187.39437465 0.21996635 178.6905592 -3.875 167.375 C-6.26995548 158.76149598 -6.16085399 149.95032464 -6.19287109 141.07080078 C-6.20104858 139.80278122 -6.20922607 138.53476166 -6.21765137 137.22831726 C-6.24365516 133.05067003 -6.25916101 128.87301388 -6.2734375 124.6953125 C-6.2788068 123.24545158 -6.28418431 121.79559069 -6.28956985 120.34572983 C-6.31117022 114.3045316 -6.32989813 108.2633358 -6.34119225 102.22210884 C-6.35737913 93.62658456 -6.39046079 85.0315158 -6.44759309 76.43616307 C-6.48658337 70.35845295 -6.50585913 64.28086313 -6.51111281 58.20303142 C-6.51472791 54.59009278 -6.52632944 50.97764222 -6.55921555 47.36484146 C-6.8510859 13.7021718 -6.8510859 13.7021718 0 0 Z " fill="#1F180E" transform="translate(23,43)"/>
<path d="M0 0 C2.66219621 2.66219621 2.26349671 3.94838175 2.29052734 7.66796875 C2.3096669 9.45122559 2.3096669 9.45122559 2.32919312 11.27050781 C2.33141876 12.56311523 2.33364441 13.85572266 2.3359375 15.1875 C2.342367 16.52832176 2.34909548 17.86914211 2.35610962 19.20996094 C2.36810299 22.02786501 2.37178896 24.84564641 2.37060547 27.66357422 C2.37040354 31.25007167 2.39756283 34.83576533 2.43214989 38.42207336 C2.45456293 41.19675189 2.45843846 43.97124248 2.45738602 46.7460022 C2.46085486 48.703368 2.48244963 50.6606751 2.50448608 52.61791992 C2.4645844 60.49063307 2.03882749 68.64260552 -3.58901978 74.71435547 C-5.25 76.125 -5.25 76.125 -8 78 C-6.99718631 74.26223988 -6.10251122 72.11243198 -3.4621582 69.21655273 C0.60079558 63.61345194 -0.27170304 56.72703965 -0.29296875 50.09765625 C-0.27983904 48.65032381 -0.26453092 47.20300964 -0.24714661 45.75572205 C-0.20743125 41.96632141 -0.19711501 38.17740156 -0.19311523 34.38781738 C-0.18375812 30.51295511 -0.14632867 26.63837235 -0.11132812 22.76367188 C-0.04688981 15.17577862 -0.01353724 7.58817301 0 0 Z M-8 79 C-14.73420687 84.5604748 -19.65237413 85.83340129 -28.2734375 85.40234375 C-29.84177841 85.35987267 -29.84177841 85.35987267 -31.44180298 85.31654358 C-34.75455816 85.21930812 -38.0638519 85.07853842 -41.375 84.9375 C-43.62100978 84.86768677 -45.86710615 84.80060269 -48.11328125 84.73632812 C-52.2082235 84.60705391 -56.30263508 84.4732452 -60.39599609 84.30053711 C-61.21490326 84.2668956 -62.03381042 84.23325409 -62.87753296 84.19859314 C-65 84 -65 84 -68 83 C-71.09787433 83.69642136 -74.03230118 84.8790888 -77 86 C-77.66128906 86.24105469 -78.32257813 86.48210937 -79.00390625 86.73046875 C-82.83551105 88.22835313 -85.25972212 89.96612091 -88 93 C-88.99 93.66 -89.98 94.32 -91 95 C-91.99 94.67 -92.98 94.34 -94 94 C-92.12653773 92.58126158 -90.25129507 91.16498375 -88.375 89.75 C-87.33085938 88.96109375 -86.28671875 88.1721875 -85.2109375 87.359375 C-75.70208955 80.37233831 -75.70208955 80.37233831 -69 80 C-67.66610924 80.33109565 -66.33281244 80.66458999 -65 81 C-63.48560571 81.09785238 -61.96769015 81.14791958 -60.45019531 81.16113281 C-59.55536438 81.17074036 -58.66053345 81.1803479 -57.73858643 81.19024658 C-56.77813416 81.19449646 -55.81768188 81.19874634 -54.828125 81.203125 C-53.33354767 81.21167511 -53.33354767 81.21167511 -51.80877686 81.22039795 C-49.70065367 81.22983811 -47.59251579 81.23637802 -45.484375 81.24023438 C-42.27577623 81.24992217 -39.06782304 81.28094796 -35.859375 81.3125 C-33.80729545 81.31903235 -31.75521134 81.32428191 -29.703125 81.328125 C-28.27459198 81.3466452 -28.27459198 81.3466452 -26.81719971 81.36553955 C-20.89754915 81.34596199 -13.01944123 77.32685292 -8 79 Z M-96 95 C-95.01 95.495 -95.01 95.495 -94 96 C-94.99 96.495 -94.99 96.495 -96 97 C-96 96.34 -96 95.68 -96 95 Z " fill="#A17D59" transform="translate(185,98)"/>
<path d="M0 0 C0.86625 0.4640625 0.86625 0.4640625 1.75 0.9375 C3.88062894 2.10648926 3.88062894 2.10648926 5.9453125 2.15234375 C8 3 8 3 9.6328125 5.9140625 C10.37144531 7.75097656 10.37144531 7.75097656 11.125 9.625 C11.62257812 10.83414063 12.12015625 12.04328125 12.6328125 13.2890625 C13.08398438 14.51367188 13.53515625 15.73828125 14 17 C14.35318802 17.94604095 14.70637604 18.89208191 15.07026672 19.86679077 C16.694593 25.70576767 16.26880609 31.83481554 16.24291992 37.84228516 C16.24399408 39.24405506 16.24593474 40.64582452 16.24867249 42.04759216 C16.25350179 45.83875903 16.24588968 49.6298074 16.23571944 53.42095995 C16.22690922 57.39443855 16.22869695 61.36791377 16.2290802 65.34140015 C16.22814502 72.01082329 16.21947977 78.68020081 16.20581055 85.34960938 C16.19007372 93.05622874 16.18481298 100.7627982 16.1855461 108.46943247 C16.1862219 116.68342493 16.17928026 124.8973982 16.1700995 133.11138487 C16.16797014 135.47502052 16.16725859 137.83865306 16.16686058 140.20228958 C16.16585489 143.91724785 16.15973974 147.63216436 16.14969444 151.34710884 C16.14538829 153.35829872 16.14594024 155.36949716 16.14663696 157.38069153 C16.14237198 158.58067276 16.13810699 159.78065399 16.13371277 161.01699829 C16.13203692 162.05782877 16.13036108 163.09865925 16.12863445 164.17103004 C16.00527656 166.88395627 15.61091914 169.35813926 15 172 C14.67 172 14.34 172 14 172 C14.00037703 171.23284794 14.00075405 170.46569588 14.0011425 169.67529678 C14.00827377 150.9693542 13.98223437 132.26372341 13.9197216 113.5578804 C13.89028191 104.51167039 13.87188147 95.46569438 13.87988281 86.41943359 C13.88683206 78.53048465 13.87264688 70.64189819 13.83356392 62.75303817 C13.81361334 58.57962796 13.80391994 54.40678616 13.81957626 50.23334503 C13.83401018 46.29646048 13.81995877 42.36065651 13.78504753 38.42391014 C13.77714851 36.9873439 13.77922074 35.55067848 13.79260826 34.11415291 C13.9033169 21.12497542 10.31832659 11.83279598 1.3203125 2.42578125 C0 1 0 1 0 0 Z " fill="#4E382E" transform="translate(223,35)"/>
<path d="M0 0 C4.87752542 1.77364561 7.00086072 3.82909764 9.19882965 8.52825928 C10.77346497 13.38626513 10.46756059 18.3263083 10.36230469 23.3828125 C10.35313522 24.60317703 10.34396576 25.82354156 10.33451843 27.08088684 C10.3055883 30.40521403 10.25871432 33.72835443 10.20364666 37.05228806 C10.15027493 40.53414021 10.12013403 44.01619418 10.08746338 47.49829102 C10.02219408 54.08211604 9.93622134 60.66549908 9.84269357 67.24897671 C9.73717247 74.74824672 9.65490816 82.24771643 9.5745368 89.74729156 C9.40878807 105.16522683 9.2140299 120.58265477 9 136 C8.67 136 8.34 136 8 136 C7.16546951 120.94772433 6.80289493 105.92907717 6.68359375 90.85546875 C6.66295286 88.62103454 6.64195495 86.3866036 6.62062073 84.1521759 C6.56613487 78.34757179 6.51641019 72.54293692 6.46777344 66.73828125 C6.41701219 60.78447825 6.36161501 54.83071844 6.30664062 48.87695312 C6.1999618 37.25133921 6.09832697 25.62568735 6 14 C5.34 14 4.68 14 4 14 C-0.59225513 4.58997722 -0.59225513 4.58997722 0 0 Z " fill="#494750" transform="translate(214,47)"/>
<path d="M0 0 C1.89107068 3.20498324 2.23969813 5.52606596 2.20254517 9.22650146 C2.19688034 10.28376938 2.19121552 11.34103729 2.18537903 12.43034363 C2.16883774 13.58480484 2.15229645 14.73926605 2.13525391 15.92871094 C2.12579239 17.14849136 2.11633087 18.36827179 2.10658264 19.62501526 C2.07868414 22.9657399 2.04177312 26.306137 2.00085878 29.6467123 C1.96021138 33.13934801 1.93107923 36.63207928 1.90072632 40.12481689 C1.84151478 46.73694273 1.7719452 53.3489174 1.69865549 59.96090055 C1.61571332 67.48919225 1.54431621 75.01757958 1.47388959 82.54599714 C1.32877401 98.03080709 1.16915765 113.5154329 1 129 C-1.18620738 125.72068893 -1.24953657 124.78864205 -1.24723816 120.98986816 C-1.25143265 119.9551387 -1.25562714 118.92040924 -1.25994873 117.85432434 C-1.25432922 116.71968246 -1.24870972 115.58504059 -1.24291992 114.41601562 C-1.24481827 113.22070724 -1.24671661 112.02539886 -1.24867249 110.79386902 C-1.25174524 107.51496274 -1.24586454 104.23622211 -1.23571944 100.95733452 C-1.22693902 97.52742542 -1.22869639 94.09752059 -1.2290802 90.66760254 C-1.22814351 84.90744754 -1.21945903 79.1473452 -1.20581055 73.38720703 C-1.19008498 66.72581802 -1.18481245 60.0644867 -1.1855461 53.40308046 C-1.18615633 46.99744649 -1.18105133 40.59183133 -1.17275429 34.186203 C-1.16922214 31.45899814 -1.16739114 28.73179993 -1.16686058 26.0045929 C-1.16469956 22.19769372 -1.15596036 18.39086787 -1.14526367 14.58398438 C-1.14571686 13.4493425 -1.14617004 12.31470062 -1.14663696 11.14567566 C-1.14237198 10.1109462 -1.13810699 9.07621674 -1.13371277 8.01013184 C-1.13203692 7.10974937 -1.13036108 6.20936691 -1.12863445 5.28170013 C-1 3 -1 3 0 0 Z " fill="#515155" transform="translate(35,59)"/>
<path d="M0 0 C0.33 0 0.66 0 1 0 C0.84215774 9.47053546 -3.01971158 16.51188168 -9.265625 23.5546875 C-15.1381934 29.1809869 -21.58436185 32.75088019 -29 36 C-29 36.66 -29 37.32 -29 38 C-53.09 37.67 -77.18 37.34 -102 37 C-100 35 -100 35 -97.3033905 34.75517273 C-95.58349663 34.75780876 -95.58349663 34.75780876 -93.82885742 34.76049805 C-91.87993843 34.7549012 -91.87993843 34.7549012 -89.89164734 34.74919128 C-88.84527383 34.75264588 -88.84527383 34.75264588 -87.77776146 34.75617027 C-85.58531965 34.76177021 -83.39340583 34.75258932 -81.20100403 34.7389679 C-74.96609427 34.70190161 -68.73135475 34.68318806 -62.49633789 34.69458008 C-58.68117238 34.70049361 -54.86673799 34.68185975 -51.05172157 34.64869118 C-49.60833089 34.64082283 -48.16485862 34.64189576 -46.72148705 34.65271568 C-36.04642595 34.72917994 -25.42068775 33.48759755 -16.68359375 26.71875 C-15.94238281 25.9865625 -15.20117188 25.254375 -14.4375 24.5 C-13.67308594 23.7678125 -12.90867187 23.035625 -12.12109375 22.28125 C-5.87846818 15.56726596 -2.21357296 8.85429184 0 0 Z " fill="#243135" transform="translate(236,204)"/>
<path d="M0 0 C0.66 0 1.32 0 2 0 C2 2.64 2 5.28 2 8 C2.82526184 7.99111755 3.65052368 7.98223511 4.50079346 7.9730835 C12.32598612 7.89251679 20.15103696 7.83182363 27.97655106 7.79275131 C31.99854661 7.7719876 36.02019586 7.74387901 40.04199219 7.69824219 C43.93239433 7.65437894 47.82246604 7.63077885 51.71309662 7.62049103 C53.18808942 7.61317145 54.66306672 7.59888076 56.13791656 7.57707977 C69.16636578 7.39237517 79.9855443 9.16371556 90 18 C89.67 18.66 89.34 19.32 89 20 C88.5153125 19.60167969 88.030625 19.20335938 87.53125 18.79296875 C86.8609375 18.26316406 86.190625 17.73335937 85.5 17.1875 C84.8503125 16.66542969 84.200625 16.14335938 83.53125 15.60546875 C74.87955347 10.11805012 66.12318374 10.52691796 56.25 10.48828125 C54.62474222 10.47141579 52.99949733 10.45326306 51.37426758 10.43388367 C47.11977163 10.38657996 42.86532799 10.35664416 38.61065674 10.33044434 C34.25986405 10.30053918 29.90925122 10.2540433 25.55859375 10.20898438 C17.03915129 10.12317488 8.51969209 10.05573085 0 10 C0 6.7 0 3.4 0 0 Z " fill="#DC8F6E" transform="translate(129,29)"/>
<path d="M0 0 C0 3.85900997 -0.52280192 5.01279055 -3 8 C-10.78434629 12.58403456 -18.81468024 12.56221362 -27.59765625 12.48583984 C-29.04414716 12.48798987 -30.49063637 12.49187374 -31.93711853 12.49734497 C-35.83546988 12.50697141 -39.73335754 12.49182498 -43.63165283 12.47143888 C-47.71862196 12.45378297 -51.80557862 12.45739445 -55.89257812 12.4581604 C-62.74503278 12.4562928 -69.59730926 12.43899315 -76.44970703 12.41162109 C-84.37631276 12.38007556 -92.30272428 12.36962863 -100.22938824 12.3710922 C-108.67579914 12.37244113 -117.12213509 12.35858148 -125.56852341 12.34019899 C-128.00248244 12.33593315 -130.43642941 12.33451627 -132.87039185 12.33372116 C-136.68556931 12.33171717 -140.50058285 12.31954798 -144.31570625 12.29938889 C-145.7177893 12.29353317 -147.11989121 12.29108931 -148.52198601 12.29224396 C-150.43003961 12.29322098 -152.33808614 12.28070952 -154.24609375 12.26742554 C-155.84988892 12.262398 -155.84988892 12.262398 -157.48608398 12.25726891 C-160 12 -160 12 -162 10 C-161.24462196 10.00368717 -160.48924393 10.00737434 -159.71097565 10.01117325 C-141.31538735 10.09958124 -122.91984155 10.16573731 -104.524086 10.20724869 C-95.6279588 10.22785782 -86.73197357 10.25594681 -77.8359375 10.30175781 C-70.08048579 10.34167616 -62.32513692 10.3674448 -54.56958532 10.37635398 C-50.46453969 10.3815603 -46.35978822 10.39376238 -42.25483704 10.42292023 C-38.38720735 10.45016852 -34.51999165 10.45842615 -30.65227509 10.45243073 C-29.23656206 10.45352678 -27.82083449 10.46142479 -26.40520477 10.4768219 C-16.74246835 10.57672064 -10.40907919 10.03383841 -3.0625 3.3125 C-2.381875 2.549375 -1.70125 1.78625 -1 1 C-0.67 0.67 -0.34 0.34 0 0 Z " fill="#383027" transform="translate(215,207)"/>
<path d="M0 0 C0.33 0 0.66 0 1 0 C1.97014601 6.37524522 -0.31863406 9.62788744 -3.98046875 14.765625 C-7.84969181 19.04646753 -11.38655427 20.25167752 -17 21 C-19.00045628 21.0822882 -21.00322785 21.11789688 -23.00537109 21.11352539 C-24.16612152 21.11344986 -25.32687195 21.11337433 -26.52279663 21.11329651 C-27.76050812 21.10813522 -28.9982196 21.10297394 -30.2734375 21.09765625 C-31.55231842 21.0962413 -32.83119934 21.09482635 -34.14883423 21.09336853 C-37.53211336 21.08873022 -40.91532386 21.07976081 -44.29858398 21.06866455 C-47.75764374 21.05839515 -51.21671061 21.05385911 -54.67578125 21.04882812 C-61.45053966 21.03781609 -68.22526587 21.02109064 -75 21 C-72.42994841 18.42994841 -71.45265715 18.74939714 -67.8828125 18.74462891 C-66.81409912 18.73766998 -65.74538574 18.73071106 -64.64428711 18.72354126 C-63.48292236 18.72453827 -62.32155762 18.72553528 -61.125 18.7265625 C-58.67056849 18.70625793 -56.21614144 18.68540687 -53.76171875 18.6640625 C-49.88879645 18.64153697 -46.01605101 18.62502438 -42.14306641 18.61914062 C-38.40755069 18.60956852 -34.67283494 18.5757135 -30.9375 18.5390625 C-29.7923291 18.54410797 -28.6471582 18.54915344 -27.46728516 18.55435181 C-19.75853627 18.46088791 -11.77347154 17.78505134 -6.06079102 12.05484009 C-3.06245932 8.34755279 -1.16456493 4.65825973 0 0 Z " fill="#7E6951" transform="translate(184,156)"/>
<path d="M0 0 C0.33 0 0.66 0 1 0 C1 1.65 1 3.3 1 5 C25.09 5 49.18 5 74 5 C74 5.33 74 5.66 74 6 C49.91 6 25.82 6 1 6 C1 10.62 1 15.24 1 20 C0.67 20 0.34 20 0 20 C0 15.38 0 10.76 0 6 C-24.09 6 -48.18 6 -73 6 C-73 5.67 -73 5.34 -73 5 C-48.91 5 -24.82 5 0 5 C0 3.35 0 1.7 0 0 Z " fill="#273F40" transform="translate(128,219)"/>
<path d="M0 0 C4.87212446 4.87212446 4.23219979 12.81456008 4.265625 19.265625 C4 22 4 22 2.98681641 23.69921875 C1.58719602 26.96246035 1.83130315 30.06755656 1.9453125 33.546875 C1.97061928 35.04686554 1.99534014 36.54686605 2.01953125 38.046875 C2.06897783 40.3948531 2.12477991 42.74230184 2.19189453 45.08984375 C2.65525995 62.398549 2.65525995 62.398549 -3.921875 70.3125 C-4.52515625 70.869375 -5.1284375 71.42625 -5.75 72 C-6.36359375 72.5775 -6.9771875 73.155 -7.609375 73.75 C-8.06828125 74.1625 -8.5271875 74.575 -9 75 C-9.66 74.67 -10.32 74.34 -11 74 C-10.52949219 73.59910156 -10.05898437 73.19820313 -9.57421875 72.78515625 C-8.95160156 72.21667969 -8.32898438 71.64820313 -7.6875 71.0625 C-7.07261719 70.51722656 -6.45773438 69.97195312 -5.82421875 69.41015625 C-0.28128793 62.0868408 -0.53434681 53.24474869 -0.48828125 44.43359375 C-0.47033005 43.15895767 -0.45237885 41.88432159 -0.43388367 40.57106018 C-0.38912966 37.21244931 -0.35670432 33.85419521 -0.33044434 30.49542236 C-0.30045436 27.0560616 -0.25398838 23.61692565 -0.20898438 20.17773438 C-0.12427557 13.45192753 -0.05583719 6.7261052 0 0 Z " fill="#B58958" transform="translate(187,103)"/>
<path d="M0 0 C-3 2 -3 2 -6 2 C-6 3.32 -6 4.64 -6 6 C-4.35 5.67 -2.7 5.34 -1 5 C-0.67 5.66 -0.34 6.32 0 7 C-1.258125 7.33 -2.51625 7.66 -3.8125 8 C-12.67196555 10.97644505 -19.82973755 16.79613736 -24.9765625 24.53125 C-25.48316406 25.25828125 -25.48316406 25.25828125 -26 26 C-26.33 26 -26.66 26 -27 26 C-26.64030075 17.36721798 -21.7402861 12.45266299 -15.625 6.75 C-5.57388784 -1.85796261 -5.57388784 -1.85796261 0 0 Z " fill="#969076" transform="translate(51,20)"/>
<path d="M0 0 C1.72364051 2.24073266 3.22998723 4.40690048 4.625 6.875 C7.3901856 10.51340211 10.29136862 12.37482117 14.171875 14.703125 C14.77515625 15.13109375 15.3784375 15.5590625 16 16 C16 16.66 16 17.32 16 18 C14.02 18.99 14.02 18.99 12 20 C12 20.66 12 21.32 12 22 C5.60473678 20.2558373 1.39858018 15.30088997 -1.9375 9.8125 C-3 7 -3 7 -3 3 C-2.34 3 -1.68 3 -1 3 C-0.67 2.01 -0.34 1.02 0 0 Z " fill="#434644" transform="translate(37,200)"/>
<path d="M0 0 C48.84 0 97.68 0 148 0 C148 0.33 148 0.66 148 1 C99.16 1 50.32 1 0 1 C0 0.67 0 0.34 0 0 Z " fill="#010100" transform="translate(54,15)"/>
<path d="M0 0 C0.33 0 0.66 0 1 0 C1 47.52 1 95.04 1 144 C0.67 144 0.34 144 0 144 C0 96.48 0 48.96 0 0 Z " fill="#000000" transform="translate(240,59)"/>
<path d="M0 0 C0.33 0 0.66 0 1 0 C1.07003922 16.24614215 1.12296314 32.49223543 1.15543652 48.73849201 C1.17091433 56.28168595 1.1920212 63.82478615 1.22631836 71.36791992 C1.25619287 77.94148561 1.27556835 84.51498343 1.28226548 91.08861512 C1.28618109 94.57026869 1.29540197 98.05172806 1.31719017 101.53331947 C1.34129937 105.41718854 1.34197125 109.30086653 1.34057617 113.18481445 C1.35675491 114.92189919 1.35675491 114.92189919 1.3732605 116.69407654 C1.36707451 118.27791641 1.36707451 118.27791641 1.36076355 119.89375305 C1.36352893 120.81278066 1.36629431 121.73180826 1.36914349 122.67868519 C1 125 1 125 -0.32332897 126.80742168 C-2.82635528 128.58776789 -5.01945909 128.19870273 -8 128 C-5 126 -5 126 0 124 C0 83.08 0 42.16 0 0 Z " fill="#EE8E6D" transform="translate(236,60)"/>
<path d="M0 0 C0.33 0 0.66 0 1 0 C1 44.88 1 89.76 1 136 C0.67 136 0.34 136 0 136 C0 91.12 0 46.24 0 0 Z " fill="#000000" transform="translate(15,64)"/>
<path d="M0 0 C1.25172261 2.50344521 1.03062183 4.08134512 0.9375 6.875 C0.90690056 18.64048633 3.14408857 31.92644059 11.72265625 40.77734375 C12.14417969 41.18082031 12.56570312 41.58429688 13 42 C13 42.66 13 43.32 13 44 C13.515625 44.226875 14.03125 44.45375 14.5625 44.6875 C17 46 17 46 19.8125 48.3125 C25.38974089 52.44014964 32.44181261 54.01650703 39 56 C39 56.66 39 57.32 39 58 C36.3125 58.75 36.3125 58.75 33 59 C30.75 57.375 30.75 57.375 28 55 C26.41090061 54.19856513 24.80467327 53.43065902 23.1875 52.6875 C12.40935351 47.39437465 5.21996635 38.6905592 1.125 27.375 C-1.33602514 18.82935442 -1.44697976 9.8344235 -1 1 C-0.67 0.67 -0.34 0.34 0 0 Z " fill="#1E2D1C" transform="translate(18,183)"/>
<path d="M0 0 C1.875 1.125 1.875 1.125 3 3 C2.875 6.0625 2.875 6.0625 2 9 C-1.22373677 11.14915785 -2.26703674 11.38286803 -6 11 C-8 9 -8 9 -8.3125 5.5 C-8.209375 4.345 -8.10625 3.19 -8 2 C-4.76746204 -0.15502531 -3.74849077 -0.46856135 0 0 Z " fill="#514A4A" transform="translate(117,122)"/>
<path d="M0 0 C2.875 0.6875 2.875 0.6875 3.875 1.6875 C4.0625 5.125 4.0625 5.125 3.875 8.6875 C1.875 10.6875 1.875 10.6875 -1.0625 11 C-4.125 10.6875 -4.125 10.6875 -6.0625 9.5625 C-7.125 7.6875 -7.125 7.6875 -7 4.625 C-5.75350662 0.44034366 -4.32624662 -0.43262466 0 0 Z " fill="#50494A" transform="translate(146.125,121.3125)"/>
<path d="M0 0 C27.06 0 54.12 0 82 0 C82 0.33 82 0.66 82 1 C54.94 1 27.88 1 0 1 C0 0.67 0 0.34 0 0 Z " fill="#000000" transform="translate(51,243)"/>
<path d="M0 0 C0.66 0.33 1.32 0.66 2 1 C2 5.62 2 10.24 2 15 C1.67 15 1.34 15 1 15 C0.67 13.02 0.34 11.04 0 9 C-0.53625 9.350625 -1.0725 9.70125 -1.625 10.0625 C-4.78390245 11.30943518 -6.75318971 10.84699399 -10 10 C-10.66 9.34 -11.32 8.68 -12 8 C-11.01 7.67 -10.02 7.34 -9 7 C-8.67 6.34 -8.34 5.68 -8 5 C-7.030625 4.87625 -6.06125 4.7525 -5.0625 4.625 C-1.88417172 4.3508355 -1.88417172 4.3508355 -0.625 1.9375 C-0.41875 1.298125 -0.2125 0.65875 0 0 Z " fill="#404B53" transform="translate(236,185)"/>
<path d="M0 0 C22.11 0 44.22 0 67 0 C67 0.33 67 0.66 67 1 C44.89 1 22.78 1 0 1 C0 0.67 0 0.34 0 0 Z " fill="#000000" transform="translate(138,243)"/>
<path d="M0 0 C5.33390806 1.93960293 7.10178076 4.24963243 9.43359375 9.16015625 C10 11 10 11 9 13 C8.01 13 7.02 13 6 13 C5.01 13.495 5.01 13.495 4 14 C-0.59225513 4.58997722 -0.59225513 4.58997722 0 0 Z " fill="#4E4347" transform="translate(214,47)"/>
<path d="M0 0 C0.86625 0.4640625 0.86625 0.4640625 1.75 0.9375 C3.88062894 2.10648926 3.88062894 2.10648926 5.9453125 2.15234375 C8 3 8 3 9.6328125 5.9140625 C10.37144531 7.75097656 10.37144531 7.75097656 11.125 9.625 C11.62257812 10.83414063 12.12015625 12.04328125 12.6328125 13.2890625 C14.72868053 18.97784717 16.29745957 23.90207878 16 30 C14 27 14 27 13.3125 23.0625 C11.51462995 14.32998832 5.95064848 6.49161652 0 0 Z " fill="#281914" transform="translate(223,35)"/>
<path d="M0 0 C0.76570313 0.56267578 0.76570313 0.56267578 1.546875 1.13671875 C8.65717308 6.14166261 16.45611598 10.1126337 25 12 C25 12.66 25 13.32 25 14 C22.3125 14.75 22.3125 14.75 19 15 C16.75 13.375 16.75 13.375 14 11 C11.50128808 9.6670819 8.96516578 8.45050164 6.40234375 7.24609375 C4.01242515 6.00644491 1.995273 4.81095217 0 3 C0 2.01 0 1.02 0 0 Z " fill="#283F2D" transform="translate(32,227)"/>
<path d="M0 0 C-0.90363281 0.47050781 -1.80726562 0.94101563 -2.73828125 1.42578125 C-3.92983986 2.05439878 -5.12123772 2.68332109 -6.3125 3.3125 C-6.90740234 3.62123047 -7.50230469 3.92996094 -8.11523438 4.24804688 C-11.18080851 5.87502756 -13.66993703 7.42737527 -16 10 C-17.64821244 11.03013277 -19.31503702 12.03114628 -21 13 C-21.99 13.66 -22.98 14.32 -24 15 C-24 14.01 -24 13.02 -24 12 C-22.3203125 10.71875 -22.3203125 10.71875 -20.125 9.5 C-17.06209764 7.78740943 -16.01995371 7.02993057 -14 4 C-11.69631264 2.93347808 -9.35981813 1.93578995 -7 1 C-6.2575 0.5875 -5.515 0.175 -4.75 -0.25 C-3 -1 -3 -1 0 0 Z " fill="#AB865D" transform="translate(115,182)"/>
<path d="M0 0 C0.94875 0.04125 1.8975 0.0825 2.875 0.125 C0.49227189 2.60303724 -1.98599756 4.86616894 -4.625 7.0625 C-7.51443639 9.50453979 -9.87525512 12.06534696 -12.125 15.125 C-11.49032318 11.69304384 -10.14911502 9.36808259 -8.1875 6.5 C-7.66285156 5.72398438 -7.13820313 4.94796875 -6.59765625 4.1484375 C-3.68572536 0.14742901 -3.68572536 0.14742901 0 0 Z " fill="#E1DFBA" transform="translate(36.125,30.875)"/>
<path d="M0 0 C0.33 0 0.66 0 1 0 C1.97244955 6.39038275 -0.34442498 9.69043467 -3.98046875 14.86328125 C-6.19621335 17.20759904 -7.94973265 18.04646219 -11 19 C-10.46375 18.195625 -9.9275 17.39125 -9.375 16.5625 C-9.01535156 16.01980469 -8.65570313 15.47710937 -8.28515625 14.91796875 C-7.34631578 13.51684209 -6.39386521 12.12480788 -5.43359375 10.73828125 C-4.89863281 9.95839844 -4.36367187 9.17851562 -3.8125 8.375 C-3.30332031 7.64023438 -2.79414063 6.90546875 -2.26953125 6.1484375 C-1.0383265 4.06486023 -0.44395961 2.36421865 0 0 Z M-13 19 C-11 20 -11 20 -11 20 Z " fill="#886F55" transform="translate(184,156)"/>
<path d="M0 0 C0.556875 0.268125 1.11375 0.53625 1.6875 0.8125 C-0.64113414 4.63811324 -2.15966233 7.07098743 -6.3125 8.8125 C-8.02171589 10.3537312 -8.02171589 10.3537312 -9.3125 11.8125 C-8.22992561 6.79329145 -6.42474177 -0.52092501 0 0 Z " fill="#B6A071" transform="translate(35.3125,35.1875)"/>
<path d="M0 0 C5.27749285 0.53851968 9.25645564 1.77343836 14 4 C11.64046906 6.35953094 10.22104383 6.49141413 7 7 C6.401875 6.21625 5.80375 5.4325 5.1875 4.625 C3.08914751 1.85425677 3.08914751 1.85425677 0 0 Z " fill="#D68C72" transform="translate(197,18)"/>
<path d="M0 0 C0.66 0.33 1.32 0.66 2 1 C1.52949219 1.43570313 1.05898438 1.87140625 0.57421875 2.3203125 C-3.2508365 5.979061 -5.79205965 9.11928976 -8 14 C-8.99 14.495 -8.99 14.495 -10 15 C-9.62258566 9.59039445 -8.01123799 7.54481497 -4 4 C-3.236875 3.236875 -2.47375 2.47375 -1.6875 1.6875 C-1.130625 1.130625 -0.57375 0.57375 0 0 Z " fill="#E9CC82" transform="translate(48,50)"/>
<path d="M0 0 C1.46109063 0.25554054 2.91888096 0.53000372 4.375 0.8125 C5.59316406 1.03873047 5.59316406 1.03873047 6.8359375 1.26953125 C9 2 9 2 11 5 C10.625 7.1875 10.625 7.1875 10 9 C8.33043913 7.69118353 6.66441696 6.37785174 5 5.0625 C4.071875 4.33160156 3.14375 3.60070313 2.1875 2.84765625 C1.465625 2.23792969 0.74375 1.62820312 0 1 C0 0.67 0 0.34 0 0 Z " fill="#AF7B66" transform="translate(218,30)"/>
<path d="M0 0 C0.99 0.33 1.98 0.66 3 1 C2.57372794 3.06484978 2.13348551 5.12681821 1.6875 7.1875 C1.44386719 8.33605469 1.20023438 9.48460937 0.94921875 10.66796875 C0.03123076 13.89037104 -1.14019342 16.23373307 -3 19 C-3.33 18.34 -3.66 17.68 -4 17 C-3.26630239 15.09905619 -2.52927441 13.19927878 -1.76953125 11.30859375 C-0.53795333 7.61385998 -0.25969091 3.868499 0 0 Z " fill="#5CB7B1" transform="translate(224,194)"/>
<path d="M0 0 C0.66 0.33 1.32 0.66 2 1 C1.04882866 2.1725131 0.08882991 3.33787015 -0.875 4.5 C-1.67550781 5.47453125 -1.67550781 5.47453125 -2.4921875 6.46875 C-2.98976563 6.9740625 -3.48734375 7.479375 -4 8 C-4.66 8 -5.32 8 -6 8 C-6.66 10.64 -7.32 13.28 -8 16 C-8.66 15.67 -9.32 15.34 -10 15 C-8.55693119 8.58636086 -4.52173041 4.52173041 0 0 Z " fill="#56463B" transform="translate(85,85)"/>
<path d="M0 0 C0.86625 0.4640625 0.86625 0.4640625 1.75 0.9375 C3.91680462 2.08149783 3.91680462 2.08149783 6.125 2.375 C8 3 8 3 9.3125 4.8125 C10.10151327 7.32299678 9.87324262 8.55492066 9 11 C8.443125 10.29875 7.88625 9.5975 7.3125 8.875 C4.90875268 5.88655739 2.46189568 2.94059762 0 0 Z " fill="#644137" transform="translate(223,35)"/>
<path d="M0 0 C0.33 0 0.66 0 1 0 C1.0809313 2.60478883 1.14045434 5.20706653 1.1875 7.8125 C1.22520508 8.91948242 1.22520508 8.91948242 1.26367188 10.04882812 C1.33747625 15.48575047 1.33747625 15.48575047 -0.3125 18 C-2.85354989 19.50580734 -5.11775089 19.19214994 -8 19 C-5 17 -5 17 0 15 C0 10.05 0 5.1 0 0 Z " fill="#E28869" transform="translate(236,169)"/>
<path d="M0 0 C0 3.69802232 -0.78432081 5.06597429 -3 8 C-5.69921875 9.36328125 -5.69921875 9.36328125 -8.6875 10.3125 C-9.68136719 10.63863281 -10.67523438 10.96476563 -11.69921875 11.30078125 C-12.45847656 11.53152344 -13.21773437 11.76226562 -14 12 C-14 11.34 -14 10.68 -14 10 C-13.48050781 9.76925781 -12.96101562 9.53851563 -12.42578125 9.30078125 C-7.77314205 7.12496292 -4.47073537 4.89143056 -1 1 C-0.67 0.67 -0.34 0.34 0 0 Z " fill="#4A3D37" transform="translate(215,207)"/>
<path d="M0 0 C0.99 0.33 1.98 0.66 3 1 C1.51073462 3.97853075 -0.87397295 4.02813199 -3.85546875 5.0703125 C-7.14124508 6.49474741 -9.38233172 8.57865684 -12 11 C-10.58590577 7.60470083 -8.97643772 5.94087183 -6 3.8125 C-4.948125 3.04873047 -4.948125 3.04873047 -3.875 2.26953125 C-2 1 -2 1 0 0 Z " fill="#E2D99C" transform="translate(54,45)"/>
<path d="M0 0 C7.42857143 1 7.42857143 1 11 2 C11 2.66 11 3.32 11 4 C8.3125 4.8125 8.3125 4.8125 5 5 C2.125 2.5625 2.125 2.5625 0 0 Z " fill="#2A2F2C" transform="translate(46,237)"/>
<path d="M0 0 C0.99 0 1.98 0 3 0 C4 2 4 2 3.8125 3.9375 C2.77312729 6.57590764 1.3461165 7.48637645 -1 9 C-1.125 2.25 -1.125 2.25 0 0 Z " fill="#5E543E" transform="translate(23,43)"/>
<path d="M0 0 C2.64752004 2.57784846 4.94432065 4.91648098 7 8 C4 8 4 8 2.61328125 6.6875 C1.40885417 5.125 0.20442708 3.5625 -1 2 C-0.67 1.34 -0.34 0.68 0 0 Z " fill="#E2DBCD" transform="translate(83,158)"/>
<path d="M0 0 C0.66 0.33 1.32 0.66 2 1 C2.625 3.5625 2.625 3.5625 3 6 C1.68 5.67 0.36 5.34 -1 5 C-1 5.66 -1 6.32 -1 7 C-1.66 7 -2.32 7 -3 7 C-3.33 5.35 -3.66 3.7 -4 2 C-2.68 2 -1.36 2 0 2 C0 1.34 0 0.68 0 0 Z " fill="#503E3D" transform="translate(221,54)"/>
<path d="M0 0 C1.98 0 3.96 0 6 0 C6 1.32 6 2.64 6 4 C3.03 3.505 3.03 3.505 0 3 C0 2.01 0 1.02 0 0 Z " fill="#F5997F" transform="translate(206,23)"/>
<path d="M0 0 C0.99 1.32 1.98 2.64 3 4 C2.67 4.66 2.34 5.32 2 6 C0.33333333 6 -1.33333333 6 -3 6 C-3 5.01 -3 4.02 -3 3 C-2.34 3 -1.68 3 -1 3 C-0.67 2.01 -0.34 1.02 0 0 Z " fill="#3B3E3C" transform="translate(37,200)"/>
<path d="M0 0 C0.33 0 0.66 0 1 0 C1 1.98 1 3.96 1 6 C0.67 6 0.34 6 0 6 C0 4.02 0 2.04 0 0 Z " fill="#000000" transform="translate(16,200)"/>
<path d="M0 0 C0.33 0 0.66 0 1 0 C1 1.65 1 3.3 1 5 C0.67 5 0.34 5 0 5 C0 3.35 0 1.7 0 0 Z " fill="#000000" transform="translate(16,59)"/>
<path d="M0 0 C0.99 0.33 1.98 0.66 3 1 C2.01 1 1.02 1 0 1 C0 0.67 0 0.34 0 0 Z " fill="#000000" transform="translate(32,231)"/>
<path d="M0 0 C0.99 0.495 0.99 0.495 2 1 C1.67 1.66 1.34 2.32 1 3 C0.67 2.01 0.34 1.02 0 0 Z " fill="#000000" transform="translate(25,223)"/>
<path d="M0 0 C1 4 1 4 1 4 Z " fill="#000000" transform="translate(239,203)"/>
<path d="M0 0 C1 4 1 4 1 4 Z " fill="#000000" transform="translate(17,55)"/>
<path d="M0 0 C1 4 1 4 1 4 Z " fill="#000000" transform="translate(239,55)"/>
<path d="M0 0 C1 4 1 4 1 4 Z " fill="#000000" transform="translate(18,51)"/>
<path d="M0 0 C0.66 0.33 1.32 0.66 2 1 C1.01 1 0.02 1 -1 1 C-0.67 0.67 -0.34 0.34 0 0 Z " fill="#000000" transform="translate(34,25)"/>
<path d="M0 0 C3 1 3 1 3 1 Z " fill="#000000" transform="translate(207,240)"/>
<path d="M0 0 C3 1 3 1 3 1 Z " fill="#000000" transform="translate(43,238)"/>
<path d="" fill="#000000" transform="translate(0,0)"/>
<path d="" fill="#000000" transform="translate(0,0)"/>
<path d="" fill="#000000" transform="translate(0,0)"/>
<path d="" fill="#000000" transform="translate(0,0)"/>
<path d="" fill="#000000" transform="translate(0,0)"/>
<path d="" fill="#000000" transform="translate(0,0)"/>
<path d="" fill="#000000" transform="translate(0,0)"/>
<path d="" fill="#000000" transform="translate(0,0)"/>
<path d="" fill="#000000" transform="translate(0,0)"/>
<path d="" fill="#000000" transform="translate(0,0)"/>
<path d="M0 0 C3 1 3 1 3 1 Z " fill="#000000" transform="translate(210,19)"/>
<path d="M0 0 C3 1 3 1 3 1 Z " fill="#000000" transform="translate(45,18)"/>
<path d="M0 0 C3 1 3 1 3 1 Z " fill="#000000" transform="translate(205,17)"/>
<path d="M0 0 C3 1 3 1 3 1 Z " fill="#000000" transform="translate(48,17)"/>
<path d="M0 0 C3 1 3 1 3 1 Z " fill="#000000" transform="translate(202,16)"/>
<path d="M0 0 C3 1 3 1 3 1 Z " fill="#000000" transform="translate(51,16)"/>
<path d="M0 0 C2 1 2 1 2 1 Z " fill="#010101" transform="translate(48,241)"/>
<path d="M0 0 C2 1 2 1 2 1 Z " fill="#000000" transform="translate(210,239)"/>
<path d="M0 0 C2 1 2 1 2 1 Z " fill="#000000" transform="translate(212,238)"/>
<path d="M0 0 C2 1 2 1 2 1 Z " fill="#000000" transform="translate(214,237)"/>
<path d="M0 0 C2 1 2 1 2 1 Z " fill="#000000" transform="translate(41,237)"/>
<path d="M0 0 C2 1 2 1 2 1 Z " fill="#000000" transform="translate(39,236)"/>
<path d="M0 0 C2 1 2 1 2 1 Z " fill="#000000" transform="translate(217,235)"/>
<path d="M0 0 C2 1 2 1 2 1 Z " fill="#000000" transform="translate(36,234)"/>
<path d="M0 0 C2 1 2 1 2 1 Z " fill="#000000" transform="translate(220,233)"/>
<path d="" fill="#000000" transform="translate(0,0)"/>
<path d="" fill="#000000" transform="translate(0,0)"/>
<path d="" fill="#000000" transform="translate(0,0)"/>
<path d="" fill="#000000" transform="translate(0,0)"/>
<path d="" fill="#000000" transform="translate(0,0)"/>
<path d="" fill="#000000" transform="translate(0,0)"/>
<path d="" fill="#000000" transform="translate(0,0)"/>
<path d="" fill="#000000" transform="translate(0,0)"/>
<path d="" fill="#000000" transform="translate(0,0)"/>
<path d="" fill="#000000" transform="translate(0,0)"/>
<path d="" fill="#000100" transform="translate(0,0)"/>
<path d="" fill="#000000" transform="translate(0,0)"/>
<path d="" fill="#010100" transform="translate(0,0)"/>
<path d="" fill="#000000" transform="translate(0,0)"/>
<path d="" fill="#000000" transform="translate(0,0)"/>
<path d="" fill="#010100" transform="translate(0,0)"/>
<path d="" fill="#000000" transform="translate(0,0)"/>
<path d="" fill="#000000" transform="translate(0,0)"/>
<path d="" fill="#000000" transform="translate(0,0)"/>
<path d="" fill="#000000" transform="translate(0,0)"/>
<path d="M0 0 C2 1 2 1 2 1 Z " fill="#000000" transform="translate(220,25)"/>
<path d="M0 0 C2 1 2 1 2 1 Z " fill="#000000" transform="translate(216,22)"/>
<path d="M0 0 C2 1 2 1 2 1 Z " fill="#000000" transform="translate(38,22)"/>
<path d="M0 0 C2 1 2 1 2 1 Z " fill="#000000" transform="translate(214,21)"/>
<path d="M0 0 C2 1 2 1 2 1 Z " fill="#000000" transform="translate(40,21)"/>
<path d="M0 0 C2 1 2 1 2 1 Z " fill="#000000" transform="translate(42,20)"/>
<path d="M0 0 C2 1 2 1 2 1 Z " fill="#000000" transform="translate(208,18)"/>
<path d="" fill="#010101" transform="translate(0,0)"/>
<path d="" fill="#000000" transform="translate(0,0)"/>
<path d="" fill="#010101" transform="translate(0,0)"/>
<path d="" fill="#010202" transform="translate(0,0)"/>
<path d="" fill="#010101" transform="translate(0,0)"/>
<path d="" fill="#000000" transform="translate(0,0)"/>
<path d="" fill="#000101" transform="translate(0,0)"/>
<path d="" fill="#000101" transform="translate(0,0)"/>
<path d="" fill="#010101" transform="translate(0,0)"/>
<path d="" fill="#010101" transform="translate(0,0)"/>
<path d="" fill="#000000" transform="translate(0,0)"/>
<path d="" fill="#010101" transform="translate(0,0)"/>
<path d="" fill="#000000" transform="translate(0,0)"/>
<path d="" fill="#000000" transform="translate(0,0)"/>
<path d="" fill="#000000" transform="translate(0,0)"/>
<path d="" fill="#010101" transform="translate(0,0)"/>
<path d="" fill="#000000" transform="translate(0,0)"/>
<path d="" fill="#000100" transform="translate(0,0)"/>
<path d="" fill="#000000" transform="translate(0,0)"/>
<path d="" fill="#010101" transform="translate(0,0)"/>
<path d="" fill="#010101" transform="translate(0,0)"/>
<path d="" fill="#000000" transform="translate(0,0)"/>
<path d="" fill="#010101" transform="translate(0,0)"/>
<path d="" fill="#010101" transform="translate(0,0)"/>
<path d="" fill="#010101" transform="translate(0,0)"/>
<path d="" fill="#000000" transform="translate(0,0)"/>
<path d="" fill="#000000" transform="translate(0,0)"/>
<path d="" fill="#010101" transform="translate(0,0)"/>
<path d="" fill="#010100" transform="translate(0,0)"/>
<path d="" fill="#000000" transform="translate(0,0)"/>
<path d="" fill="#010000" transform="translate(0,0)"/>
<path d="" fill="#010000" transform="translate(0,0)"/>
<path d="" fill="#010000" transform="translate(0,0)"/>
<path d="" fill="#010100" transform="translate(0,0)"/>
<path d="" fill="#010000" transform="translate(0,0)"/>
<path d="" fill="#000000" transform="translate(0,0)"/>
<path d="" fill="#010101" transform="translate(0,0)"/>
<path d="" fill="#010100" transform="translate(0,0)"/>
<path d="" fill="#010000" transform="translate(0,0)"/>
<path d="" fill="#000000" transform="translate(0,0)"/>
<path d="" fill="#000000" transform="translate(0,0)"/>
<path d="" fill="#010100" transform="translate(0,0)"/>
<path d="" fill="#010100" transform="translate(0,0)"/>
<path d="" fill="#000000" transform="translate(0,0)"/>
<path d="" fill="#000000" transform="translate(0,0)"/>
</svg>
